<?xml version="1.0" standalone="no"?>
<!DOCTYPE svg PUBLIC "-//W3C//DTD SVG 1.1//EN" "http://www.w3.org/Graphics/SVG/1.1/DTD/svg11.dtd" >
<svg xmlns="http://www.w3.org/2000/svg">
<metadata></metadata>
<defs>
<font id="kg_love_somebodyregular" horiz-adv-x="451" >
<font-face units-per-em="1024" ascent="819" descent="-205" />
<missing-glyph horiz-adv-x="350" />
<glyph horiz-adv-x="1024" />
<glyph horiz-adv-x="1024" />
<glyph unicode="&#xd;" horiz-adv-x="243" />
<glyph unicode=" "  horiz-adv-x="350" />
<glyph unicode="&#x09;" horiz-adv-x="350" />
<glyph unicode="&#xa0;" horiz-adv-x="350" />
<glyph unicode="!" horiz-adv-x="259" d="M95 188q-4 46 -7 106t-5.5 126.5t-4.5 136.5t-3 137t-1 127t1 107q1 18 12 30.5t27 18.5t34.5 6t34 -5.5t25 -16.5t8.5 -27l-45 -744q-1 -10 -12.5 -16.5t-25 -7.5t-25.5 4t-13 18zM151 9q-37 -8 -53 5t-14.5 32.5t18.5 37t47 17.5q24 0 36.5 -12.5t12.5 -28t-12 -30.5 t-35 -21z" />
<glyph unicode="&#x22;" horiz-adv-x="279" d="M117 618q-4 -15 -15.5 -23t-23.5 -7.5t-21 9.5t-7 27q1 11 1.5 32.5t1 45t0.5 45v32.5q0 14 10.5 20.5t23 6t22.5 -8.5t10 -23zM225 620q-4 -15 -15.5 -23t-23.5 -7.5t-21 9.5t-7 27q1 11 1.5 32.5t1 45t0.5 45v32.5q0 14 10.5 20.5t23 6t22.5 -8.5t10 -23z" />
<glyph unicode="#" horiz-adv-x="744" d="M560 130q5 -10 -2.5 -20.5t-19.5 -16.5t-23.5 -3t-14.5 20q-8 45 -16.5 99.5t-16.5 119.5l-162 -37q6 -50 14 -95.5t21 -83.5q6 -17 -2.5 -28.5t-21.5 -14.5t-26 3.5t-17 24.5q-19 91 -30 179l-126 -29q-15 2 -23 11.5t-8.5 21t7 21.5t23.5 13q6 1 39 9t81 19 q-5 46 -7 89t-4 84l-131 -32q-15 2 -24 13t-9.5 23t7.5 21.5t26 9.5q7 0 42.5 8t87.5 21q0 54 2 97.5t4 75.5q3 37 6 65q0 14 10.5 20.5t23 6t22.5 -8.5t10 -23q-2 -31 -5 -87.5t-4 -128.5q38 9 77 19t77 20q0 47 1.5 96t5.5 101q1 14 12 22t23.5 9t22.5 -5.5t10 -21.5 q-5 -42 -7.5 -89t-2.5 -96q61 15 104 25.5t51 11.5q14 1 22 -8.5t8.5 -22t-6.5 -23.5t-22 -12l-156 -38q1 -45 3.5 -89t5.5 -86q58 14 99 23t49 10q14 1 21.5 -8.5t8 -22t-6.5 -23.5t-22 -12l-144 -34q4 -42 8.5 -79t9 -65t8.5 -46t7 -23zM293 532q0 -42 1.5 -86t4.5 -88 q39 9 79.5 19t80.5 19q-4 41 -6.5 84t-4.5 90z" />
<glyph unicode="$" horiz-adv-x="544" d="M229 45q2 14 2.5 44.5t1.5 75.5q-42 -6 -84.5 -2.5t-84.5 19.5q-15 8 -17.5 23t4 28t21 19.5t34.5 -3.5q27 -14 60 -16.5t67 3.5v111t-1 122q-32 6 -63.5 15t-57.5 22.5t-44.5 33.5t-24.5 49q-6 27 3 64.5t33 76t62.5 73.5t91.5 56q0 39 1 68.5t3 43.5q1 14 13 21 t25.5 6.5t24.5 -7.5t11 -22v-90q26 4 55 3.5t61 -5.5q22 -4 32.5 -16.5t10 -26t-11.5 -23.5t-32 -8q-64 6 -115 -5v-269q32 -5 63.5 -10t57 -14t43.5 -22.5t24 -33.5q11 -40 1 -79.5t-36 -74.5t-65 -63t-86 -46q0 -47 0.5 -72.5t1 -38.5t1 -17.5t0.5 -9.5q1 -22 -13.5 -32 t-31 -10t-30 10.5t-11.5 28.5zM118 606q2 -29 34 -43.5t80 -22.5q-1 64 -1 121v111q-60 -31 -87.5 -78t-25.5 -88zM422 414q-6 17 -37 25.5t-75 15.5q0 -60 0.5 -108t0.5 -86q28 13 51.5 30t39 37t21.5 42t-1 44z" />
<glyph unicode="%" horiz-adv-x="680" d="M119 12q-10 -17 -25 -20t-27.5 4t-18 21.5t4.5 32.5l523 908q12 21 27 24.5t26.5 -4.5t16 -24.5t-5.5 -35.5zM63 822q4 52 23 86.5t45.5 53t57 20t57 -12t45 -42t21.5 -71.5q3 -52 -15 -90.5t-47 -61t-63 -28.5t-63 7.5t-47 47.5t-14 91zM122 835q-1 -38 8.5 -60.5 t24 -31.5t32 -5t32 18.5t23.5 38.5t8 56q-2 34 -21.5 49.5t-43 13.5t-43 -22t-20.5 -57zM373 134q2 52 20 86.5t45.5 53t59 20.5t59.5 -11.5t47.5 -42t23.5 -71.5q4 -49 -13.5 -86.5t-46.5 -60.5t-63.5 -29.5t-64.5 6t-49.5 45.5t-17.5 90zM439 142q-1 -38 9 -59t25.5 -27.5 t33.5 -0.5t32 22t21.5 40t2.5 54t-24.5 46t-41 14.5t-39.5 -23t-19 -66.5z" />
<glyph unicode="&#x26;" horiz-adv-x="708" d="M480 101q-18 -15 -46 -34t-62 -36t-71.5 -29t-75 -12.5t-73 13t-64.5 48.5q-26 31 -32 69.5t2 80t25.5 83t39.5 79t45 68t40 50.5q-24 35 -46.5 73.5t-40.5 79t-29.5 81.5t-12.5 82q-2 48 18 85.5t52 62t71.5 34t75.5 2.5q66 -14 101.5 -45t47 -73t3.5 -91.5t-28 -100.5 t-48.5 -100.5t-57.5 -90.5q0 -9 13 -31.5t32 -51.5t42 -61t43 -58t35.5 -43.5t19.5 -18.5l106 102q8 9 21.5 6.5t25 -12t16.5 -23t-4 -24.5l-118 -119l17 -17t20 -21t19.5 -22t16.5 -19q10 -12 6.5 -25.5t-13 -23.5t-22.5 -13.5t-22 4.5q-6 6 -16 16.5t-21.5 23.5t-24.5 27 t-26 25zM258 408q-36 -33 -65.5 -77t-46 -89t-17.5 -85.5t20 -64.5q22 -26 60 -28t80 12t81.5 39.5t63.5 53.5zM153 785q1 -23 9 -53.5t22 -62.5t33 -64t42 -58q17 18 37.5 48.5t38 66.5t29 73.5t11 71t-17 58.5t-54.5 35q-28 7 -55.5 2.5t-49 -20t-34.5 -40.5t-11 -57z" />
<glyph unicode="'" horiz-adv-x="197" d="M117 618q-4 -15 -15.5 -23t-23.5 -7.5t-21 9.5t-7 27q1 11 1.5 32.5t1 45t0.5 45v32.5q0 14 10.5 20.5t23 6t22.5 -8.5t10 -23l-2 -156v0z" />
<glyph unicode="(" horiz-adv-x="396" d="M28 494q0 34 5 78.5t17 93t31 98.5t46 95.5t63 83.5t83 63q15 8 28 4.5t20.5 -12.5t8 -20.5t-9.5 -19.5q-64 -51 -106 -108t-67 -116.5t-35 -118.5t-10 -114q0 -60 10.5 -127.5t38.5 -133.5t75.5 -126.5t122.5 -106.5q15 -9 17.5 -22.5t-4 -24.5t-21 -15.5t-32.5 3.5 q-69 31 -122 93.5t-88 139t-53 159t-18 154.5z" />
<glyph unicode=")" horiz-adv-x="429" d="M390 460q0 -34 -5 -78.5t-17 -93t-31 -98.5t-46 -95.5t-63.5 -83.5t-82.5 -63q-15 -8 -28 -4.5t-20.5 12.5t-8 20.5t9.5 19.5q64 51 106 108t67 116.5t35 118.5t10 114q0 60 -10.5 127.5t-38.5 133.5t-75.5 126.5t-122.5 106.5q-15 9 -17.5 22.5t4 24.5t21 15.5 t32.5 -3.5q69 -31 122 -93.5t88 -139t53 -159t18 -154.5z" />
<glyph unicode="*" d="M126 489q-7 13 -3 27t13.5 22t22 7.5t23.5 -15.5q1 -2 5 -9.5t9 -16t9.5 -17t7.5 -11.5l-10 74q4 15 16 22.5t24.5 6.5t21.5 -10t7 -27q-1 -3 -2 -12t-2.5 -20t-2.5 -21.5t-1 -16.5l42 61q13 7 27 4t22.5 -12.5t8 -22.5t-15.5 -24q-2 -1 -7.5 -5t-12.5 -9t-13.5 -10.5 t-10.5 -8.5l62 16q15 -4 23 -16t7.5 -24.5t-9.5 -21.5t-27 -7q-7 0 -26 -5t-34 -5q15 -17 32 -30t22 -19q9 -11 5.5 -23t-14 -20t-23.5 -9t-23 11l-37 50q0 -6 0.5 -15.5t1 -18.5t1.5 -16.5t1 -10.5q0 -14 -11 -20.5t-24 -5.5t-23.5 9.5t-9.5 23.5l13 64q-6 -6 -14.5 -14 t-16.5 -15.5t-14.5 -13.5t-8.5 -8q-11 -9 -23 -5.5t-20.5 13.5t-9.5 23t10 23l64 36h-20h-24h-22h-13q-14 0 -21 11t-6 23.5t9 23t23 10.5l72 -17l-50 47v0z" />
<glyph unicode="+" d="M203 550q4 15 16 22.5t24.5 6.5t21.5 -10t7 -27q-2 -8 -2.5 -30.5t-1.5 -51.5l98 1q15 -4 23 -16t7.5 -24.5t-9.5 -21.5t-27 -7q-9 1 -35 1h-58q0 -38 -0.5 -70t-0.5 -42q0 -14 -11 -20.5t-24 -5.5t-23.5 9.5t-9.5 23.5l2 104q-35 0 -63.5 -0.5t-37.5 -0.5q-14 0 -21 11 t-6 23.5t9 23t23 10.5h97l2 91v0z" />
<glyph unicode="," horiz-adv-x="195" d="M117 -82q-8 -11 -22 -13t-25.5 2t-16.5 13t5 22q16 20 22 42t4.5 41.5t-9 35.5t-19.5 24q-12 9 -9 20.5t13 20t24 11t24 -7.5q28 -27 36.5 -59t5.5 -62t-13.5 -54t-19.5 -36z" />
<glyph unicode="-" d="M366 461q15 -4 23 -16t7.5 -24.5t-9.5 -21.5t-27 -7q-8 1 -28 1h-46.5t-56 -0.5t-56 -0.5t-47 -0.5t-27.5 -0.5q-14 0 -21 11t-6 23.5t9 23t23 10.5l262 2v0z" />
<glyph unicode="." horiz-adv-x="249" d="M129 -3q-37 -8 -53 5t-14.5 32.5t18.5 37t47 17.5q24 0 36.5 -12.5t12.5 -28t-12 -30.5t-35 -21z" />
<glyph unicode="/" horiz-adv-x="668" d="M55 34q8 15 32.5 59.5t58.5 108t75.5 141.5t85 158.5t85.5 159t77 143.5t60.5 112t35.5 64q7 12 20 12.5t25 -6.5t18.5 -18.5t-0.5 -24.5q-132 -243 -224.5 -415.5t-152 -285t-88 -169t-32.5 -65.5q-8 -21 -24.5 -25t-31 2t-22 19.5t1.5 29.5z" />
<glyph unicode="0" horiz-adv-x="704" d="M55 34q6 11 20.5 37t34.5 64q-27 50 -42 112t-19 130t2.5 138t23 136t42.5 124.5t61.5 102.5t79.5 71t96 29t94.5 -16t76.5 -53q14 25 24.5 43t15.5 28q7 12 20 12.5t25 -6.5t18.5 -18.5t-0.5 -24.5q-14 -26 -27 -50.5t-27 -48.5q39 -67 59 -155t19.5 -181.5t-21 -184 t-61.5 -162.5t-102.5 -116.5t-143.5 -45.5q-51 -1 -91.5 17t-72.5 50q-13 -24 -20 -39t-9 -19q-8 -21 -24.5 -25t-31 2t-22 19.5t1.5 29.5zM318 75q60 -5 106.5 28t78.5 89.5t50 130.5t21.5 152t-7.5 154t-36 136q-125 -231 -206.5 -384t-127.5 -241q23 -29 53 -46t68 -19z M349 904q-48 -5 -87.5 -42t-69 -94t-47.5 -128.5t-23.5 -146.5t2 -147t30.5 -130q37 69 81 151.5t89 166.5t87.5 163.5t76.5 142.5q-26 34 -61 51.5t-78 12.5z" />
<glyph unicode="1" horiz-adv-x="480" d="M73 -3q-17 -1 -28 8.5t-12.5 22.5t8 24.5t35.5 14.5q6 1 27 2t44 2.5t44 3t27 1.5q-2 35 -4 92t-2 127.5t2 148.5t7.5 154t14.5 145t24 121q-11 -7 -30 -25t-41.5 -37t-44.5 -35t-39 -20q-13 -5 -24 0t-16 15.5t-1.5 23t18.5 21.5q28 15 54 37t49 45t42.5 45.5t34.5 39.5 q11 12 26 12t27.5 -8.5t19.5 -25.5t1 -40q-15 -60 -28 -151t-20 -201.5t-7 -233.5t11 -247l126 -2q18 0 26.5 -11.5t8.5 -24.5t-8 -24t-23 -10q-13 1 -40 1t-61.5 -1t-72.5 -2t-72.5 -2.5t-62 -3t-40.5 -2.5z" />
<glyph unicode="2" horiz-adv-x="682" d="M90 -3q-15 -6 -26.5 0.5t-16 19t-1.5 27t16 23.5q39 27 83.5 67t89 90t87 108t78 121.5t60.5 131t36 136.5q4 29 1 61t-15.5 59.5t-35 46.5t-56.5 22q-41 4 -83.5 -13.5t-79 -47.5t-62.5 -69t-33 -79q-2 -15 -12 -18.5t-21 0t-19.5 12.5t-8.5 21q0 34 15.5 67.5 t40.5 64.5t58 57.5t69 45t72 28t69 6.5q50 -4 84 -29.5t54.5 -61.5t29 -77.5t7.5 -78.5q-2 -74 -33 -160t-79 -170t-106 -159t-115 -125q99 23 193 12.5t194 -61.5q21 -11 24.5 -27.5t-2.5 -30.5t-19.5 -21t-27.5 1q-80 47 -151 60.5t-134 6.5t-119 -27t-105 -40z" />
<glyph unicode="3" horiz-adv-x="634" d="M57 47q-20 9 -24 25.5t3.5 30t23.5 20t35 -4.5q45 -26 94.5 -36t97 -7t90 18t74 39t49.5 56.5t16 71.5q-3 49 -28 88t-67 65.5t-98.5 40t-121.5 12.5q-19 0 -32 10.5t-17.5 24t1.5 27t24 19.5q43 13 94.5 40.5t95 66.5t72 87.5t26.5 102.5q-1 27 -20.5 42t-49 21.5 t-65.5 4.5t-69.5 -10.5t-61.5 -22.5t-41 -31q-12 -15 -25 -13.5t-22.5 12t-13.5 24t3 22.5q23 30 63.5 51.5t89 31.5t98 8.5t91 -17.5t68 -47t28.5 -79t-14.5 -93t-47 -85.5t-72 -74.5t-89.5 -59q70 -11 123.5 -40t89 -67.5t52.5 -82t15 -84.5q-3 -60 -28.5 -106.5 t-66 -78.5t-93.5 -49.5t-111.5 -20.5t-120 8.5t-118.5 38.5z" />
<glyph unicode="4" horiz-adv-x="684" d="M442 27q-1 34 -2.5 75.5t-3 83.5t-3 82t-2.5 72q-19 -3 -51.5 -7t-71 -7t-79 -3.5t-76.5 4t-63.5 15t-39.5 29.5q-11 17 -12.5 33.5t8.5 41.5t33 63t62 97.5t95.5 145.5t133.5 207q7 10 21 16t29 4.5t26.5 -12t13.5 -32.5q1 -17 5 -56.5t9 -90t10.5 -106.5t10 -106t8 -88 t3.5 -53l134 28q13 2 22.5 -7.5t12 -22t-2.5 -25t-20 -17.5l-140 -36q-1 -39 0.5 -81.5t3.5 -85.5t3.5 -85t1.5 -81q0 -14 -15 -21t-31.5 -7t-28 8t-4.5 25zM109 413q9 -5 44 -9.5t81.5 -5t97.5 4t92 16.5q0 108 -9 226.5t-12 230.5z" />
<glyph unicode="5" horiz-adv-x="552" d="M83 -4q-17 -3 -25.5 7.5t-9 24t6.5 26t21 14.5q93 10 167.5 49.5t124 91.5t70.5 108.5t7 100.5q-11 36 -41.5 52t-72 14t-90.5 -21.5t-98 -56.5q-20 -15 -37 -19t-28.5 5.5t-17.5 34t-4 65.5q2 45 5.5 86t7 81.5t6.5 82t4 88.5q-34 2 -46.5 12.5t-8.5 23.5t21 25t43 17 q5 31 17 41.5t24.5 8t21.5 -13.5t8 -24l320 62q23 0 33 -9.5t8 -22.5t-15 -25.5t-36 -18.5q-13 -3 -38 -8t-55.5 -10.5t-64 -11.5t-64 -11.5t-55.5 -10t-38 -7.5q-8 -89 -13 -151t-8.5 -103t-4.5 -64.5t-1.5 -35t-0.5 -15v-4.5q53 40 117 59t121.5 16t99.5 -29t50 -75 q13 -80 -12.5 -153t-83 -133t-143 -102.5t-192.5 -60.5z" />
<glyph unicode="6" horiz-adv-x="524" d="M33 322q-2 24 -2.5 67.5t4 98.5t18 118t39 127.5t67 126t102.5 113.5q13 11 29.5 9t27 -11t11.5 -23t-17 -28q-44 -35 -83.5 -89t-69 -121.5t-45.5 -145.5t-13 -161q12 12 30 25.5t39.5 26.5t46 23.5t50.5 16.5q57 13 100 2.5t71.5 -37.5t43.5 -67t17 -84.5t-8.5 -90.5 t-32.5 -85q-17 -30 -40.5 -56.5t-52 -45t-60 -28t-64.5 -6.5q-58 6 -96.5 40t-62 81.5t-35 102t-14.5 101.5zM114 314q-1 -30 4 -72.5t20 -81.5t43.5 -66.5t74.5 -27.5q23 0 44 9t39.5 24.5t34 36t27.5 43.5q13 26 20 56.5t6.5 61t-9 58t-26 46t-45 25t-65.5 -3.5 q-27 -7 -54 -19.5t-50 -27t-40 -30.5t-24 -31z" />
<glyph unicode="7" horiz-adv-x="577" d="M326 17q-3 105 6 218.5t26.5 227.5t41.5 225t53 212q-26 -9 -71.5 -16.5t-96.5 -10.5t-100.5 -0.5t-84.5 12.5l-2 -182q0 -18 -10.5 -27.5t-22.5 -9.5t-21.5 9.5t-9.5 29.5q1 49 1.5 78.5t0 49.5t-1.5 34.5t-2 34.5q-2 32 19 47.5t60 6.5q41 -9 86.5 -12t92.5 0 t94.5 11.5t92.5 21.5q13 7 26 5t22 -10t12 -22t-2 -31q-21 -73 -45 -167.5t-43.5 -208.5t-32.5 -245.5t-13 -279.5q0 -17 -11.5 -25t-25.5 -8t-26 8.5t-12 23.5z" />
<glyph unicode="8" horiz-adv-x="548" d="M205 -2q-69 9 -107.5 40.5t-52 76.5t-5.5 98t32 106.5t60 102.5t79 84q-61 28 -103.5 76.5t-64 104t-18.5 112.5t32.5 101t89 69.5t151.5 18.5q62 -5 100 -32t55 -67.5t15.5 -90.5t-18 -101t-45 -99t-65.5 -84q70 -45 111 -103.5t54 -119.5t0 -119t-51 -100.5t-101 -64 t-148 -9.5zM284 455q-28 -7 -59.5 -35.5t-57.5 -68.5t-42.5 -85.5t-15 -86.5t25.5 -71.5t80 -39.5q68 -12 116 6t74.5 53t32 82t-9.5 94t-51 88t-93 64zM286 928q-60 3 -102 -15.5t-64.5 -50.5t-25 -73t15.5 -83.5t58 -83t102 -70.5q26 16 52 48t45 71t28 81t2 78.5 t-33.5 63t-77.5 34.5z" />
<glyph unicode="9" horiz-adv-x="556" d="M384 19q0 41 -2 94.5t-2 116.5t3.5 134.5t15.5 149.5q-34 -28 -74.5 -45.5t-82 -23t-80 2.5t-68.5 31t-48 61.5t-18 95.5q0 63 29.5 124.5t77.5 109.5t109.5 78t124.5 30q35 0 66.5 -9.5t54 -29t33 -49.5t3.5 -70q-28 -117 -44.5 -223t-24.5 -202.5t-8 -186.5t5 -176 q1 -17 -9.5 -26.5t-24 -11t-25 4.5t-11.5 20zM93 633q0 -36 12.5 -60t33.5 -38.5t47.5 -19t54.5 0t54.5 17t47.5 33.5q26 26 46 61t35 74t25 79.5t17 76.5q-5 23 -30 39t-55 16q-50 0 -101 -25t-92.5 -65t-68 -90t-26.5 -99z" />
<glyph unicode=":" horiz-adv-x="228" d="M125 517q-37 -8 -53 5t-14.5 32.5t18.5 37t47 17.5q24 0 36.5 -12.5t12.5 -28t-12 -30.5t-35 -21zM116 228q-37 -8 -53 5t-14.5 32.5t18.5 37t47 17.5q24 0 36.5 -12.5t12.5 -28t-12 -30.5t-35 -21z" />
<glyph unicode=";" horiz-adv-x="229" d="M133 -82q-8 -11 -22 -13t-25.5 2t-16.5 13t5 22q16 20 22 42t4.5 41.5t-9 35.5t-19.5 24q-12 9 -9 20.5t13 20t24 11t24 -7.5q28 -27 36.5 -59t5.5 -62t-13.5 -54t-19.5 -36zM108 211q-37 -8 -53 5t-14.5 32.5t18.5 37t47 17.5q24 0 36.5 -12.5t12.5 -28t-12 -30.5 t-35 -21z" />
<glyph unicode="&#x3c;" horiz-adv-x="402" d="M317 583q12 7 24 2.5t19.5 -15t6.5 -22.5t-14 -19q-20 -11 -52 -29t-67 -39t-70 -41.5t-60 -35.5q16 -10 48 -25t68.5 -30t71 -27t55.5 -16q14 -3 18.5 -14t2 -22.5t-12 -19.5t-22.5 -5q-36 9 -74.5 22.5t-75 28.5t-69.5 30t-60 27q-12 5 -20 18.5t-9 29.5t6 31.5 t25 24.5l261 146v0z" />
<glyph unicode="=" horiz-adv-x="457" d="M366 486q15 -4 23 -16t7.5 -24.5t-9.5 -21.5t-27 -7q-8 1 -28 1h-46.5t-56 -0.5t-56 -0.5t-47 -0.5t-27.5 -0.5q-14 0 -21 11t-6 23.5t9 23t23 10.5zM363 360q15 -4 23 -16t7.5 -24.5t-9.5 -21.5t-27 -7q-8 1 -28 1h-46.5t-56 -0.5t-56 -0.5t-47 -0.5t-27.5 -0.5 q-14 0 -21 11t-6 23.5t9 23t23 10.5z" />
<glyph unicode="&#x3e;" horiz-adv-x="411" d="M80 236q-12 -8 -24 -3t-19.5 15.5t-7 22.5t14.5 19q20 11 52 29t67 39t69.5 41.5t60.5 35.5q-16 10 -48 25t-68.5 30t-71 27t-55.5 16q-14 3 -18.5 14t-2 22.5t11.5 19.5t23 5q36 -9 74.5 -22.5t75 -28.5t69.5 -30t60 -27q12 -5 20 -18.5t9 -29.5t-6 -31.5t-25 -24.5 l-261 -146v0z" />
<glyph unicode="?" horiz-adv-x="671" d="M282 153q-33 57 -39.5 106.5t6.5 92.5t40.5 82t61.5 75.5t70 72t65.5 72.5t49 77t20.5 85q0 21 -13.5 37.5t-34.5 28t-45.5 17.5t-44.5 6q-19 0 -47 -2.5t-58 -10.5t-60 -22.5t-54.5 -37.5t-40.5 -57t-18 -80q-1 -22 -13.5 -30.5t-27.5 -8t-27 9t-12 20.5q0 76 31 131.5 t81 92t113 54t127 17.5q37 0 75 -7.5t69.5 -26.5t51.5 -50t20 -77q0 -57 -18.5 -104.5t-47 -88.5t-63.5 -77t-68 -70t-60 -66.5t-40 -67t-8 -72t36 -80.5q12 -17 5 -31.5t-22 -21.5t-33 -5t-27 17zM388 -14q-37 -8 -53 5t-14.5 32.5t18.5 37t47 17.5q24 0 36.5 -12.5 t12.5 -28t-12 -30.5t-35 -21z" />
<glyph unicode="@" horiz-adv-x="1068" d="M42 379q0 95 24.5 176.5t67.5 147t101 115t125 82.5t140.5 48.5t146.5 12.5q83 -3 147 -36t108.5 -84t71 -114.5t35.5 -128.5t1 -126t-31.5 -106.5t-62 -70.5t-91.5 -18q-41 5 -73.5 20.5t-57.5 35.5t-42 42t-28 42q-18 -34 -42 -74.5t-57 -76t-76.5 -58.5t-100.5 -23 q-56 0 -87.5 25t-42.5 65t-4.5 91.5t26 105t49.5 105t66 92t75.5 66t77.5 26.5t67.5 -7t49.5 -32t30.5 -67t10.5 -110q0 -44 15.5 -77t40 -57t55.5 -38.5t62 -21.5q30 -6 51.5 12t33.5 52.5t14 81t-7.5 97t-31 100t-55.5 90.5t-81.5 68.5t-109.5 33.5q-59 6 -122 -6.5 t-123.5 -41t-114.5 -73t-94.5 -103.5t-64 -131.5t-21.5 -156.5q2 -100 40.5 -169t102 -109.5t145 -54.5t170 -5.5t177 38.5t165.5 77q16 10 31 5.5t24 -15.5t9 -25t-12 -22q-86 -56 -188.5 -91t-205 -44.5t-198 9.5t-169 69.5t-118 134.5t-44.5 207zM505 685q-31 0 -66 -32 t-66.5 -80t-55 -104t-31 -103.5t5 -79.5t54.5 -32q38 0 70.5 17.5t59.5 45.5t47.5 64t35 73t22 72t8.5 62q0 12 -2 28.5t-11 32t-26 26t-45 10.5z" />
<glyph unicode="A" horiz-adv-x="731" d="M616 38q-2 17 -7.5 47.5t-13.5 67t-17.5 75.5t-19.5 74t-19.5 62.5t-17.5 40.5q-84 0 -165 -8t-164 -22q-3 -7 -8.5 -30t-12.5 -55t-15 -69t-15 -73t-12.5 -67t-7.5 -51q-3 -20 -16.5 -26.5t-27.5 -2.5t-24.5 16t-6.5 29l184 814q7 54 29.5 86.5t56.5 36.5q31 4 61 -23.5 t58 -77.5t54.5 -117t50.5 -143.5t45.5 -157t40.5 -157t34.5 -144t27.5 -117.5q4 -19 -5.5 -31t-23.5 -14t-27 6.5t-16 30.5zM217 456q70 0 139 11t141 14q1 8 -7 42t-22.5 80t-33.5 98t-39.5 96.5t-41 74.5t-37.5 33z" />
<glyph unicode="B" horiz-adv-x="699" d="M95 6q-13 8 -19.5 22t-6 27t9 20.5t26.5 3.5q97 -30 185 -26.5t153.5 34t102 84t32.5 122.5q-2 29 -27.5 60.5t-71.5 53.5t-109.5 26.5t-140.5 -20.5v-305q0 -12 -10.5 -18.5t-23.5 -6.5t-24.5 7.5t-13.5 22.5v796q-18 0 -27.5 -1t-17.5 -3t-17 -5t-26 -7q-15 -4 -24 6.5 t-11 24.5t5 28t24 18q53 12 113.5 18t120.5 3.5t115 -14.5t97 -36t67 -62.5t25 -92.5q0 -41 -18.5 -80t-48.5 -75t-67 -68.5t-74 -60.5q46 -4 91.5 -21t82.5 -44.5t60 -64.5t23 -80q0 -89 -43.5 -157t-119 -107.5t-176.5 -47t-216 25.5zM233 502q26 5 58.5 20t65.5 37.5 t64 50t55.5 57.5t38.5 60.5t14 58.5q-1 28 -17.5 50t-42.5 38.5t-59 27.5t-67 16.5t-65 6t-53 -4.5z" />
<glyph unicode="C" horiz-adv-x="674" d="M42 384q0 63 10 134t31 140.5t53.5 132t77 108.5t101.5 71t128 18q15 -2 35 -12t38.5 -29t31.5 -47.5t13 -65.5q0 -16 -11 -25t-24 -11t-23.5 3.5t-9.5 18.5q2 25 -5 43t-18.5 30t-26.5 18t-30 5q-50 -3 -92 -29t-75.5 -68t-58.5 -96t-41 -112t-24 -116.5t-7 -109.5 q1 -52 12.5 -105.5t38 -97t70.5 -72t109 -30.5q84 -2 138.5 48.5t87.5 143.5q6 18 20.5 22.5t28 -1t21.5 -20t1 -33.5q-18 -53 -47 -98.5t-67 -78.5t-86 -51t-105 -16q-81 3 -137.5 37.5t-91.5 89t-50.5 122.5t-15.5 139z" />
<glyph unicode="D" horiz-adv-x="720" d="M141 -48q-17 -6 -27.5 0t-13.5 17.5t2.5 25.5t20.5 25q7 5 15.5 7.5l17 5t16.5 5.5t13 10q1 19 1 61.5t-0.5 100.5t-1 127t-1.5 140.5t-2 141t-1.5 128t-1.5 102.5t-2 65h-123q-14 -6 -23.5 3t-10.5 22t8.5 24t33.5 10q6 1 22 2t34.5 2.5t35 2.5t22.5 1q-2 25 8 39t23 15 t24 -12.5t13 -41.5q86 -8 170 -40.5t147.5 -90.5t97.5 -141.5t21 -192.5q-14 -115 -65.5 -204.5t-125.5 -158t-164.5 -118t-182.5 -83.5zM245 908q0 -96 1 -201.5t2.5 -212.5t4.5 -211t6 -195q31 16 67 37.5t73 49.5t72 63t63 77.5t48 93.5t26 111q10 93 -17 166t-79 123 t-121.5 75.5t-145.5 23.5z" />
<glyph unicode="E" horiz-adv-x="676" d="M261 -3q-63 -5 -103 25t-63 82.5t-31 122.5t-6.5 145.5t10 151t18 139.5t18.5 110t11 63q3 25 10.5 41.5t20.5 26.5t31.5 14.5t44.5 6.5q78 5 175.5 20.5t206.5 35.5q17 3 29 -5.5t14.5 -21.5t-6.5 -27t-34 -21q-22 -6 -54.5 -11t-70 -9t-78 -8t-78 -8.5t-69.5 -9.5 t-53 -12q-14 -5 -23.5 -41.5t-17 -87t-12.5 -104t-10 -92.5q31 2 72.5 7.5t86.5 14.5t90 20.5t83 26.5q23 9 41.5 2.5t26 -19.5t0.5 -28t-35 -22q-51 -14 -93.5 -24t-85 -19t-89 -19.5t-105.5 -24.5q0 -12 -2.5 -43.5t-2 -72.5t5.5 -85.5t19.5 -82t40 -62t67.5 -24.5 q30 0 74.5 9.5t91 23t87.5 27.5t63 23q25 6 42.5 3t24 -12t1.5 -22.5t-26 -28.5q-18 -13 -47.5 -24.5t-65 -21.5t-73.5 -18.5t-72 -14.5t-60.5 -10t-39.5 -5z" />
<glyph unicode="F" horiz-adv-x="712" d="M64 849q-19 -3 -29 6t-10 21t10 23t30 13q62 4 121.5 10.5t127 15.5t149 19.5t187.5 23.5q15 2 25 -7t12 -22t-5.5 -25.5t-26.5 -17.5l-415 -49q-1 -12 -2 -20.5t-1 -19.5v-28v-47v-76.5v-115.5q8 0 44.5 3t90 10t118.5 17t130 24q13 3 20 -5t8.5 -19.5t-3.5 -23 t-16 -15.5q-31 -13 -75 -21t-95.5 -15t-108.5 -15.5t-114 -22.5q0 -44 1 -105.5t2.5 -124.5t2.5 -119t2 -89q0 -16 -10 -25t-22.5 -10t-23.5 6.5t-11 25.5q-3 175 -5 301t-3 220.5t-2 165t-1 135.5z" />
<glyph unicode="G" horiz-adv-x="828" d="M42 384q0 63 10 134t31 140.5t53.5 132t77 108.5t101.5 71t128 18q15 -2 35 -12t38.5 -29t31.5 -47.5t13 -65.5q0 -16 -11 -25t-24 -11t-23.5 3.5t-9.5 18.5q2 25 -5 44t-18.5 31.5t-26.5 19t-30 5.5q-50 -2 -92.5 -28.5t-76 -69t-59 -97t-42 -113t-24.5 -117.5t-7 -110 q1 -52 6 -104.5t23.5 -96t56 -72.5t102.5 -33q42 -3 93 26t95 85t74.5 137.5t32.5 184.5q-37 -4 -62 -7t-43 -5t-32 -3t-29 -1.5t-34 -0.5h-47q-22 0 -34.5 10t-13.5 23t11 24t41 13q62 4 112.5 7.5t96.5 9t92.5 14t100.5 23.5q19 5 30.5 -4.5t13 -24t-7 -28.5t-29.5 -17 l-90 -19q-4 -87 -3.5 -158.5t6.5 -130.5t19 -107.5t34 -90.5q6 -13 -0.5 -25t-18.5 -18.5t-26.5 -5t-23.5 15.5q-10 27 -19.5 55t-17 58.5t-12.5 64.5t-6 74q-22 -65 -56 -114.5t-75.5 -82.5t-87.5 -49t-92 -14q-81 3 -130.5 37.5t-76 88t-35 121.5t-8.5 139z" />
<glyph unicode="H" horiz-adv-x="665" d="M496 31q2 20 3 80t1 142t-1 177t-1 187q-44 -14 -93 -28.5t-99 -28.5t-97 -26.5t-86 -20.5q1 -119 3 -199.5t3.5 -133t3 -81.5t2.5 -43.5t1 -20t-1 -10.5q-3 -20 -17.5 -28.5t-30 -8t-27 11t-9.5 28.5q2 17 3 63.5t1 111t-0.5 142t-0.5 157.5q-3 -1 -6.5 -1h-5.5 q-14 -1 -22 8.5t-9 21.5t5.5 23.5t20.5 14.5q4 1 8 1.5t8 1.5v127.5t0.5 112.5t1.5 88t3 54q1 14 11.5 21.5t22 7.5t21 -6.5t9.5 -21.5v-199.5t1 -167.5q67 16 122.5 29.5t101.5 26t83 23.5t68 22v89t1 78.5t1.5 61.5t2.5 39q1 14 11.5 21.5t22 7.5t21 -6.5t9.5 -21.5v-243 q9 4 17 7t16 7q20 9 32 -1.5t14.5 -26.5t-5 -31t-25.5 -15q-11 -4 -22.5 -7.5t-25.5 -8.5q1 -151 3 -252.5t4.5 -166t5 -99t4.5 -51t3.5 -21t1.5 -10.5q1 -22 -14.5 -33t-34 -11.5t-33 9t-12.5 27.5z" />
<glyph unicode="I" horiz-adv-x="652" d="M95 7q-11 0 -19 8t-9.5 18.5t5.5 20.5t25 13t42.5 3t49 -0.5t46 -0.5t32.5 3v32t1 78t2 111t2.5 132t2.5 140.5t2.5 136t3 119t2.5 90.5q-44 0 -92 -3t-92 -3q-23 0 -32.5 9.5t-9 21.5t11.5 21.5t30 9.5q18 4 65.5 6.5t111.5 4t138 2t146 -0.5q22 0 31 -11t7.5 -24 t-11.5 -23.5t-26 -10.5h-205q-4 -45 -7 -113t-4.5 -148t-2 -165t-0.5 -163v-143v-105h242q12 0 20 -9t9.5 -20t-5 -20.5t-24.5 -11.5q-7 -1 -25.5 -1.5t-42.5 -1.5t-51.5 -1.5t-51.5 -1t-42.5 -1t-25.5 -0.5q-11 -14 -16.5 -20t-22.5 -6q-14 0 -22.5 3.5t-16.5 22.5z" />
<glyph unicode="J" horiz-adv-x="780" d="M18 218q-5 18 1 31.5t17 19t25 1.5t26 -20q16 -23 34 -53t43.5 -57t61 -46t86.5 -20q34 -1 70 9t66.5 40.5t51.5 86t25.5 147t-11 223.5t-57.5 314q-9 1 -39.5 1.5t-65 0.5h-64.5h-40q-21 0 -31.5 11t-9.5 24.5t12.5 25t34.5 11.5q46 1 99 3t109.5 3t115 1t116.5 -2 q18 -1 28.5 -12.5t12 -25t-6.5 -24.5t-25 -12l-173 2q42 -187 57.5 -326.5t9.5 -239.5t-30.5 -165t-63 -103t-87.5 -53t-104 -16q-53 -1 -102 20t-88.5 54t-67 72t-36.5 74z" />
<glyph unicode="K" horiz-adv-x="654" d="M69 30q-3 47 -5 111t-4 139.5t-4 159.5t-4.5 171.5t-6.5 175t-9 170.5q-1 9 10.5 16.5t25 9.5t25.5 -3.5t13 -21.5l10 -415q29 18 65.5 49t76.5 68.5t81 79.5t79 82.5t70.5 77t55.5 63.5q8 10 22.5 9.5t25 -8.5t13 -22.5t-12.5 -33.5q-24 -30 -58 -67.5t-73 -77.5 t-81 -81t-81.5 -79t-74 -70.5t-59.5 -54.5q14 -19 40.5 -51t61.5 -70t77 -79t86.5 -79.5t89.5 -70.5t88 -51q17 -8 18.5 -24.5t-7.5 -30t-26 -19t-37 8.5q-79 54 -150.5 115t-128.5 116.5t-96 99t-54 62.5q0 -30 1.5 -80.5t3 -104.5t3 -104.5t1.5 -80.5q0 -21 -10.5 -31.5 t-23.5 -11t-24.5 9t-12.5 28.5z" />
<glyph unicode="L" horiz-adv-x="703" d="M43 28q1 5 8.5 68t16.5 182t15.5 293t5.5 401q0 14 10.5 21.5t23 7.5t23 -6.5t10.5 -21.5q5 -138 3 -272.5t-7.5 -252t-12.5 -211t-11 -149.5q27 8 64 19t81 20.5t92.5 17t97.5 9t95.5 -5t86.5 -23.5q13 -6 15 -17t-4 -21.5t-17.5 -17.5t-26.5 -4q-80 15 -145.5 15 t-119 -8.5t-95 -22t-72.5 -26.5t-53 -22.5t-36 -9.5q-3 0 -5 1q-17 -2 -31.5 7t-11.5 29z" />
<glyph unicode="M" horiz-adv-x="871" d="M754 13q0 62 -1 137t-2.5 156t-3.5 163t-4 157.5t-4 140t-4 110.5q-56 -90 -100 -161.5l-80 -130t-65.5 -106.5t-56.5 -91q-7 -11 -18.5 -17t-24 -6.5t-25 4.5t-22.5 17q-6 8 -25 39.5t-43 76t-51 95t-50.5 95.5t-40.5 79.5t-21 45.5l-4 -782q0 -15 -11 -25.5t-23.5 -12 t-23 8t-10.5 33.5q0 57 0.5 126t1 145t2 154.5t3 154.5t3.5 145t4 126q1 18 10 31t22 18t27 -1t24 -25q15 -29 35.5 -69.5t43.5 -86t47 -92.5t47 -88t42.5 -73t34.5 -47q20 28 45.5 67t54.5 84t59 93t58 93.5t52 86t42 70.5q7 12 23 21.5t32.5 9.5t29.5 -12.5t15 -44.5 q4 -107 8.5 -223.5t8 -234.5t7 -232t5.5 -216q0 -18 -12 -28t-26.5 -11t-25.5 7t-9 26z" />
<glyph unicode="N" horiz-adv-x="776" d="M104 33q0 -12 -11.5 -19t-25 -8t-24.5 5t-12 20q0 7 0.5 41.5t2 87.5t3.5 119.5t4 137t4 140.5t4 130t3 105.5t2 66.5q-2 9 5.5 18t19 13t24 0t20.5 -22q15 -50 34.5 -113.5t43 -132.5t50.5 -140t58 -136t65 -120.5t71.5 -93t77.5 -53.5t82 -3q29 9 43.5 44.5t18.5 88.5 t-1.5 119.5t-18 138t-30 143.5t-37 135t-40 114t-38.5 80q-7 12 -2 27t16.5 24.5t26.5 8t27 -22.5q25 -43 50.5 -106.5t47.5 -138.5t39.5 -157t27 -161t9 -151.5t-14 -128.5t-42.5 -91.5t-76 -40.5q-68 -8 -125.5 19.5t-105.5 77t-87.5 115.5t-71.5 136.5t-58 139.5t-46 124 z" />
<glyph unicode="O" horiz-adv-x="875" d="M399 -1q-83 -1 -145.5 30t-105.5 84.5t-67.5 124t-30.5 148.5q-6 69 2 139t28 136t52.5 123.5t76.5 100.5t99 68t121 25q63 0 117.5 -21.5t99 -58t79.5 -85t58.5 -102.5t36 -110.5t12.5 -108.5q0 -57 -14 -115.5t-40.5 -113t-65 -102t-86.5 -83.5t-105 -57t-122 -22z M424 904q-50 0 -94 -22t-79.5 -59.5t-62 -87.5t-43.5 -107t-23.5 -118t-0.5 -119q6 -62 25.5 -118t53.5 -99t82.5 -69.5t110.5 -29.5q57 -2 106 15t90 47.5t72 72.5t53 88.5t33 95.5t11 94q0 79 -24.5 153.5t-68.5 133t-105.5 94t-135.5 35.5z" />
<glyph unicode="P" horiz-adv-x="709" d="M156 362q0 24 15 33.5t36 17.5q0 112 -3.5 230.5t-4.5 247.5q-32 0 -59 -8t-55 -19q-26 -10 -41 -4.5t-18.5 18t5 27.5t29.5 24q52 22 117 34t132.5 11t132 -16t114.5 -48t80.5 -85.5t30.5 -127.5q0 -46 -19 -87.5t-50 -78t-71.5 -66.5t-83.5 -53t-85.5 -39t-77.5 -23 q0 -48 2.5 -100.5t5 -98t5 -79t2.5 -43.5q0 -17 -11 -25t-24.5 -8t-25 7t-11.5 20l-11 302q-1 6 -9.5 6t-19 1t-19 7t-8.5 23zM270 904q0 -115 1 -233.5t8 -236.5q26 1 60 11t69.5 27.5t69.5 42t61 53.5t43.5 62t17.5 68q1 63 -29.5 105t-79 67t-107.5 32.5t-114 1.5z" />
<glyph unicode="Q" horiz-adv-x="928" d="M394 -1q-83 -1 -145.5 30t-105.5 84.5t-67.5 124t-30.5 148.5q-6 69 2 139t28 136t52.5 123.5t76.5 100.5t99 68t121 25q63 0 117.5 -21.5t99 -58t79.5 -85t58.5 -102.5t36 -110.5t12.5 -108.5q0 -85 -30 -169.5t-85 -155.5q35 -38 74 -67t92 -34q16 -2 19.5 -13 t-2.5 -23t-20 -20.5t-34 -5.5q-32 5 -56.5 15.5t-45.5 25.5t-39 33t-35 37q-54 -52 -122 -83.5t-149 -32.5zM419 904q-51 0 -94.5 -22t-79 -59.5t-62 -87.5t-43.5 -107t-23.5 -118t-0.5 -119q4 -41 13.5 -79t25.5 -72q37 40 85.5 65.5t104 32t117 -6t126.5 -46.5 q20 -11 38.5 -27.5t37.5 -36.5q43 60 66 130.5t23 136.5q0 79 -24.5 153.5t-68.5 133t-105.5 94t-135.5 35.5zM540 226q-45 24 -92 32.5t-91.5 1.5t-85 -30t-71.5 -62q34 -41 81 -66t107 -27q69 -3 126.5 22t102.5 69q-34 36 -77 60z" />
<glyph unicode="R" horiz-adv-x="809" d="M111 15v214.5v211.5v213v219q-5 -2 -9.5 -6.5t-16.5 -11.5t-22 -0.5t-14.5 18.5t-2.5 25.5t16 20.5q65 32 139 47.5t146 14.5t138.5 -17.5t117.5 -46.5t81 -73.5t30 -98.5q0 -46 -22 -86t-57 -74t-79 -62t-88.5 -50t-85 -38t-67.5 -26q27 -9 65 -28.5t81.5 -47 t89.5 -60.5t88.5 -69.5t78.5 -73.5t59 -72q9 -14 6.5 -28t-11.5 -23.5t-22 -10.5t-25 13q-23 24 -55 58t-72 71t-87.5 74t-99.5 68t-108.5 52.5t-115.5 27.5l2 -348q0 -10 -12 -16.5t-27 -7t-27 5.5t-12 21zM187 454q30 0 75 11.5t95.5 31.5t101 47.5t90.5 60.5t65.5 69 t25.5 74q0 37 -22 65.5t-59 49t-84.5 32.5t-97.5 15.5t-99.5 -2t-90.5 -19.5l-1 -2t-2 -13.5t-2 -37.5t-1 -74.5t1.5 -123t4.5 -184.5z" />
<glyph unicode="S" horiz-adv-x="625" d="M36 142q-4 15 3.5 24.5t19.5 12.5t24 -2t18 -19q17 -41 49 -63.5t91 -28.5q11 -1 35 -1t53 4.5t60 14t56.5 26.5t42.5 43t19 63q1 31 -18 55t-51 44t-74 38t-86.5 38t-87.5 43t-78 53t-58 68.5t-27 89.5q-4 55 17.5 107.5t60.5 96t92 75.5t112 46t120.5 7.5t117.5 -38.5 q9 -5 9.5 -17t-4.5 -23t-14.5 -17.5t-20.5 -0.5q-44 23 -93 27.5t-96.5 -6.5t-90.5 -35t-75 -57.5t-50.5 -73.5t-16.5 -83q1 -41 23 -71.5t56 -54.5t77.5 -43t88.5 -37.5t88 -38.5t77 -45t55.5 -58t22.5 -78q1 -46 -14.5 -81t-42 -60.5t-61.5 -43t-73 -27t-76 -13.5t-71 -2 q-29 1 -60.5 7t-61 22t-52.5 43t-35 70z" />
<glyph unicode="T" horiz-adv-x="717" d="M57 957q20 0 59 2.5t89.5 6t109.5 7t120 5.5t121 1t112 -6q14 -2 21.5 -12t7.5 -22t-6.5 -21.5t-21.5 -8.5q-58 2 -131.5 1t-148.5 -5q0 -222 1.5 -370.5t4 -243t5.5 -143.5t5.5 -71.5t4.5 -28t2 -11.5q1 -22 -14.5 -33t-34 -11.5t-33 9t-12.5 27.5q2 20 3 79.5t1 140.5 t-1 175.5t-1 184.5v167.5t2 124.5q-50 -3 -95 -6t-80 -5.5t-57.5 -4t-27.5 -1.5q-22 -1 -32.5 10.5t-10.5 25.5t10 25.5t28 11.5z" />
<glyph unicode="U" horiz-adv-x="725" d="M287 8q-64 0 -108.5 42.5t-71.5 115t-39 167.5t-11 200.5t14 214t36 207.5q3 13 16.5 18.5t27.5 4.5t25 -8t8 -19q-38 -170 -48 -324.5t4 -273.5t50 -192t90 -80q61 -8 102.5 52t66 169.5t34.5 261t9 328.5q-1 22 11.5 33.5t27.5 12.5t27.5 -7t10.5 -25q-1 -27 -3.5 -84 t-3 -132t4 -161.5t19 -173.5t41 -168.5t70.5 -144.5q8 -12 2 -27t-18.5 -24.5t-28 -10.5t-26.5 16q-9 13 -22 46t-27 75.5t-26.5 90t-19.5 89.5q-14 -65 -37 -118t-54.5 -91t-70 -59t-82.5 -21z" />
<glyph unicode="V" horiz-adv-x="764" d="M452 62q-9 -29 -24 -42t-31.5 -13t-32 10.5t-26.5 27.5q-12 19 -30 61t-39.5 99.5t-45.5 126t-47.5 140.5t-46.5 142.5t-41.5 131.5t-32 108.5t-19.5 73.5q-3 15 7 27.5t24 17.5t27.5 -1t17.5 -27q3 -14 14 -55t28.5 -99t39 -127.5t44.5 -141t46 -140t43 -124.5t36 -94 t25 -49q14 39 35.5 101.5t47 137t53 157t54 161t50.5 149t42 121.5q8 22 23.5 26.5t29.5 -3t21 -24t-2 -35.5z" />
<glyph unicode="W" horiz-adv-x="835" d="M43 727q1 9 10.5 14t20.5 5t20 -4t9 -13q1 -48 -1.5 -115.5t-4.5 -140t-1.5 -143.5t7.5 -128t22.5 -92.5t42.5 -35.5q23 -1 43.5 23.5t37.5 65t31 92.5t25 106t19.5 105.5t14.5 92.5q3 21 14.5 31t25 10.5t25 -7t13.5 -20.5q5 -30 14 -79t23 -103.5t32.5 -108.5t41.5 -95 t51 -63.5t61 -12.5q36 10 60.5 55t34.5 113t4.5 155t-29 182t-67.5 193.5t-111 189.5q-8 10 -5.5 22.5t10 21.5t18.5 11t21 -10q46 -54 84 -123.5t67.5 -146.5t49 -157.5t27.5 -158t4 -147.5t-22 -125.5t-51 -93t-82 -49.5q-43 -11 -79 7t-66 51.5t-53.5 77t-40.5 85 t-27.5 75t-14.5 46.5q-4 -28 -11 -68t-18 -83t-26.5 -85.5t-37 -75.5t-49.5 -53.5t-64 -19.5q-25 1 -46.5 10t-38.5 36t-29 76t-17 129.5t-3.5 197t11.5 278.5z" />
<glyph unicode="X" horiz-adv-x="715" d="M110 -13q-13 -6 -25.5 -3t-21.5 11t-12 18.5t2 18.5q12 18 31 49t41.5 68.5t47.5 79.5t48.5 81.5t44 75t34.5 61.5l-253 472q-10 13 -5.5 25.5t16 19t25.5 3.5t23 -20l237 -432q10 12 30 43t45.5 73.5t54 91.5t56.5 96t53.5 88t44.5 68q8 11 19.5 9t20 -12t11.5 -24.5 t-5 -27.5q-16 -25 -42.5 -69.5t-57.5 -96t-62.5 -105t-58 -97.5t-44.5 -73t-21 -32q4 -14 22 -46t43.5 -72.5t56 -84.5t59 -82.5t51.5 -67t34 -37.5q15 -12 14.5 -25t-10.5 -22t-25 -11t-29 7q-12 8 -34 36t-48.5 65.5t-55 80.5t-53.5 81.5t-43.5 67t-25.5 38.5l-233 -388v0 z" />
<glyph unicode="Y" horiz-adv-x="726" d="M362 491q0 2 -14.5 24t-50.5 71t-96.5 127.5t-152.5 192.5q-14 19 -11 35t13.5 25t24 10t20.5 -10q9 -14 29 -40.5t47 -61t57.5 -73.5t61 -77.5t58 -74.5t47.5 -63q28 39 56 81.5t57 90.5t60.5 102t68.5 116q6 10 18.5 12.5t24 -1t18 -13t-0.5 -23.5q-29 -57 -51.5 -99.5 t-42.5 -76t-38 -62t-37.5 -58.5t-42 -64.5t-50.5 -80.5q-3 -12 -2.5 -45.5t2.5 -78t5 -96t5.5 -99.5t4.5 -88t2 -62q0 -20 -11 -29t-24.5 -8.5t-25.5 10.5t-13 28z" />
<glyph unicode="Z" horiz-adv-x="674" d="M132 7q-46 -3 -70.5 10.5t-10.5 45.5q5 11 20.5 37.5t36.5 61.5t46.5 76t50.5 82t47.5 78t39.5 64l-163 -8q-15 -1 -21.5 9t-6 23t7.5 24t18 12q35 4 62 5.5t50.5 3t44.5 3.5t43 6l201 366q-20 -5 -57 -11t-82.5 -12.5t-95 -13t-95 -11.5t-82.5 -7.5t-57 -1.5 q-10 0 -17 12.5t-7.5 26t8 24.5t28.5 8q13 -2 42 -0.5t68.5 5t86 9.5t94.5 13.5t94.5 16.5t85.5 19q27 7 42 3t22 -12t8.5 -17t1.5 -11q-1 -13 -16 -45.5t-37.5 -74.5t-48.5 -88t-49.5 -87t-41 -71t-22.5 -39q22 -1 47 1.5t50 6t50 8t48 7.5q20 3 31.5 -8t13.5 -25t-7 -27.5 t-30 -14.5l-232 -19l-229 -395q41 2 89.5 6.5t98.5 9t97.5 10t87 10t67 7.5t37.5 5q12 1 18.5 -9.5t6.5 -24.5t-7 -26.5t-23 -13.5z" />
<glyph unicode="[" horiz-adv-x="361" d="M56 -30v35.5v88v126.5v151t1 161.5t1.5 159t1.5 141.5t3 110q0 9 -0.5 32t7 46t28 40.5t63.5 15.5l126 3q22 0 31 -11t7.5 -24t-11.5 -23.5t-26 -10.5l-150 -3q-3 -33 -5 -89t-3 -126t-1.5 -149.5t-0.5 -161t0.5 -160.5t1 -147t1 -121t0.5 -83l168 3q12 0 20 -10t9.5 -22 t-5 -22.5t-24.5 -12.5q-10 -1 -33.5 -1.5t-49 -1t-49 -1t-33.5 -0.5q-21 -1 -35.5 0.5t-23 8t-13 20.5t-6.5 38z" />
<glyph unicode="\" horiz-adv-x="668" d="M613 35q9 -16 1.5 -29.5t-22 -19.5t-31 -2t-24.5 25q-4 9 -32.5 65.5t-88 169t-152 285t-224.5 415.5q-7 13 -0.5 24.5t18.5 18.5t25 6.5t20 -12.5q10 -17 35.5 -64t60.5 -112t77 -143.5t85.5 -159t85 -158.5t75.5 -141.5t58.5 -108t32.5 -59.5z" />
<glyph unicode="]" horiz-adv-x="361" d="M329 1012v-35.5v-88v-126.5v-151t-1 -161.5t-1.5 -159t-2 -141.5t-2.5 -110q0 -9 0.5 -32t-7 -46.5t-28 -40.5t-63.5 -15l-126 -3q-22 0 -31 11t-7.5 24t11.5 23.5t26 10.5l150 3q3 33 5 89t3 126t1.5 149.5t0.5 161t-0.5 160.5t-1 147t-1 121t-0.5 83l-168 -3 q-12 0 -20.5 10t-10 22t5.5 22.5t25 12.5q10 1 33.5 1.5t49 1t49 1t33.5 0.5q21 1 35.5 -0.5t23 -8t13 -20.5t6.5 -38z" />
<glyph unicode="^" horiz-adv-x="338" d="M141 459q4 6 12.5 10t19 3t21 -6t18.5 -17l81 -82q8 -13 5.5 -27t-11.5 -22.5t-21.5 -8.5t-24.5 14q-11 11 -30.5 31.5t-38.5 39.5q-18 -18 -36.5 -37t-28.5 -30q-12 -14 -24.5 -14t-21.5 8.5t-11.5 22.5t5.5 27z" />
<glyph unicode="_" d="M359 70q15 -4 23 -16t7.5 -24.5t-9.5 -21.5t-27 -7q-8 1 -28 1h-46.5t-56 -0.5t-56 -0.5t-47 -0.5t-27.5 -0.5q-14 0 -21 11t-6 23.5t9 23t23 10.5l262 2v0z" />
<glyph unicode="`" horiz-adv-x="266" d="M213 758q8 -13 5.5 -27t-11.5 -22.5t-21.5 -8.5t-24.5 14q-8 9 -21 22.5t-27.5 28l-28 28l-21.5 21.5q-10 10 -7.5 22.5t12 21t22.5 10.5t24 -9l99 -101v0z" />
<glyph unicode="a" horiz-adv-x="532" d="M39 108q-11 47 3 89t45 76.5t74 61t91 42t95.5 18.5t86.5 -8q1 23 -1.5 56t-15 64t-38 53.5t-70.5 25.5q-27 1 -57 -3t-59.5 -13.5t-56 -23t-46.5 -30.5q-11 -9 -24 -6t-21 12t-9 22t12 25q24 23 59 40t73.5 28t76 16t67.5 3q63 -4 100 -33t56 -72t24 -92.5t5 -94.5 q0 -27 4 -52.5t7 -50.5t2.5 -49t-9.5 -47t-29 -45.5t-56 -44.5q-67 -41 -131.5 -61.5t-117.5 -18t-90.5 30t-49.5 82.5zM107 129q5 -28 22 -43t40.5 -19t52.5 0.5t58 14.5t57 23.5t51 28.5q5 3 18 13.5t23.5 30t13.5 49.5t-11 74q-38 20 -77.5 21.5t-77.5 -9.5t-70.5 -32.5 t-56.5 -47.5t-36 -53.5t-7 -50.5z" />
<glyph unicode="b" horiz-adv-x="555" d="M49 132q-1 29 -2 91.5t-2 141.5t-2 167.5t-2 170t-1 149v104.5q0 10 10 16t22.5 7t23.5 -3.5t12 -15.5q5 -55 4.5 -126.5t-2 -150.5t-2.5 -160t3 -154q15 36 41.5 73.5t60.5 68.5t73.5 51t80.5 20q38 0 68 -13.5t51 -36.5t32 -54t11 -66q0 -42 -16.5 -88t-45 -90.5 t-66.5 -85t-81 -72.5t-88 -52t-88 -24q-31 -3 -49.5 4t-28 23.5t-13 42.5t-4.5 62zM375 512q-45 0 -83 -24.5t-67.5 -63.5t-51 -87.5t-34 -98t-16 -94.5t3.5 -76q45 0 99.5 29.5t103 75.5t84 101.5t42.5 107.5q4 27 -0.5 51t-15 41.5t-27.5 27.5t-38 10z" />
<glyph unicode="c" horiz-adv-x="602" d="M42 260q0 72 16 145.5t49.5 133.5t86.5 98t127 38q22 0 48.5 -9.5t48.5 -31.5t36 -59.5t12 -92.5q0 -14 -11.5 -20.5t-25 -6t-24 8.5t-9.5 25q2 30 -3 52.5t-15 37.5t-23.5 22.5t-26.5 7.5q-37 0 -66.5 -15.5t-52 -41.5t-38.5 -60t-26.5 -71.5t-15 -76t-4.5 -72.5 q0 -37 7 -72t24 -62.5t45 -44t69 -16.5q35 0 71.5 12t70 31.5t61.5 45t48 52.5q9 12 23 11.5t24 -11t11 -28t-15 -38.5q-26 -34 -59.5 -62t-71.5 -48.5t-79.5 -32t-83.5 -11.5q-57 0 -99.5 21t-71 57t-43 83.5t-14.5 100.5z" />
<glyph unicode="d" horiz-adv-x="573" d="M26 256q0 47 13 93.5t36.5 86.5t56.5 71.5t74 48t88 15t98 -25.5q4 70 3.5 123.5t-3 100.5t-4.5 92.5t-2 98.5q0 14 12 20.5t26.5 5.5t26.5 -8.5t12 -21.5q-4 -106 -2.5 -207t6.5 -189t11 -160t11.5 -120t8.5 -68.5t1 -5.5q20 8 33 5t16 -29q1 -20 -15 -41t-42.5 -41.5 t-60 -38.5t-67.5 -31.5t-66 -21.5t-55 -8q-55 0 -95.5 21.5t-67.5 57.5t-40 82t-13 95zM97 259q0 -65 21.5 -108t58 -63t86.5 -15.5t107 34.5q22 12 36.5 28.5t15.5 36.5q-3 24 -2.5 58.5t-3 71.5t-14 74t-33.5 67q-38 48 -85.5 54t-94.5 -34q-22 -19 -39 -44t-29 -52.5 t-18 -55t-6 -52.5z" />
<glyph unicode="e" horiz-adv-x="649" d="M33 280q2 55 21 112.5t49.5 109t70.5 93t84.5 64.5t91 23t90.5 -31t50.5 -78t-13.5 -98t-61 -99t-93.5 -81.5t-111 -45.5t-112.5 10q6 -79 36 -124t73.5 -61t94.5 -6.5t100.5 38t92 72.5t67.5 98q7 16 20.5 19t24.5 -3t17 -18t-1 -26q-65 -133 -157 -195t-197 -60 q-54 1 -99 23t-76.5 60t-47.5 90.5t-14 113.5zM112 333q37 -22 79 -16t82 29.5t74 58.5t53.5 71t21.5 67.5t-22 48.5q-36 25 -80.5 12t-86 -52t-74.5 -97t-47 -122z" />
<glyph unicode="f" horiz-adv-x="585" d="M189 420l-112 -18q-21 -6 -35 1t-17.5 19t4.5 25.5t31 20.5q17 6 31.5 8.5t29 4t29.5 4t33 8.5q2 43 -1 95.5t-4 106t4 104t23.5 90.5t54.5 65.5t97 28.5q22 0 48 -4t51.5 -17.5t48.5 -39.5t40 -70q9 -23 2 -36.5t-19.5 -17.5t-26 1t-17.5 19q-14 43 -33.5 64.5t-38.5 30 t-34 8t-21 -0.5q-54 -4 -79 -37.5t-32.5 -89.5t-3.5 -130.5t9 -158.5l245 31q16 1 25.5 -8.5t9.5 -22t-9 -25.5t-29 -17l-234 -30l15 -405q1 -10 -11 -20.5t-26 -13.5t-26 5t-11 35z" />
<glyph unicode="g" horiz-adv-x="567" d="M27 -54q-2 18 9 27.5t25 10.5t25 -7.5t8 -24.5q0 -33 11 -66t30.5 -59.5t45.5 -43t55 -16.5q51 0 91 17.5t67.5 48.5t42 72t14.5 89q0 28 -4 72t-10.5 90t-14 86.5t-13.5 61.5q-9 -39 -27.5 -75.5t-44.5 -64.5t-60 -44.5t-73 -15.5q-38 1 -69 24t-53.5 57.5t-34.5 76 t-12 80.5q0 73 24 134t63 105.5t88.5 69t101.5 24.5q25 0 45 -13.5t35 -33.5t25 -45t15 -47q16 -71 32 -138.5t29 -133t21.5 -130t9.5 -128.5t-18.5 -119.5t-56.5 -97t-90.5 -65t-120.5 -23.5q-49 0 -88 21t-66 55.5t-42 78.5t-15 90zM103 344q1 -24 7 -53t18.5 -54 t30.5 -42.5t43 -20.5q50 -5 84.5 27.5t53 88.5t20.5 127.5t-12 144.5q-6 31 -18 40t-29 7q-38 -3 -74 -27.5t-64 -62t-45 -83.5t-15 -92z" />
<glyph unicode="h" horiz-adv-x="557" d="M34 33q5 56 8 133.5t2.5 186t-4.5 253.5t-14 336q-1 22 10 32t24.5 9.5t25 -11.5t12.5 -30l19 -611q16 30 37.5 65t51.5 65t69 49.5t90 19.5q44 0 73.5 -23.5t47.5 -62.5t27 -89.5t12.5 -103t3.5 -103.5v-92q0 -13 -11.5 -19t-25.5 -5t-25.5 9t-11.5 23q0 14 1.5 48.5 t0.5 77.5t-5 89.5t-14 85t-27 63t-44 24.5q-44 0 -79 -20.5t-62 -55t-47 -78.5t-33.5 -90.5t-22.5 -92.5t-14 -83q-3 -18 -15.5 -27t-26 -8.5t-24.5 9.5t-9 27z" />
<glyph unicode="i" horiz-adv-x="199" d="M55 412q-2 25 9.5 38.5t26 16t27.5 -5t13 -23.5q1 -38 3.5 -91t6 -111t8 -114.5t10.5 -101.5q2 -17 -9 -25.5t-25.5 -8.5t-28 9t-14.5 28zM35 650q-2 32 17 50t43 21.5t45 -7.5t22 -37q1 -22 -18.5 -36t-43 -18.5t-44 2t-21.5 25.5z" />
<glyph unicode="j" horiz-adv-x="331" d="M-195 -77q-3 17 5.5 28t20.5 15.5t23 2.5t13 -12q8 -34 24 -68t40 -61t55.5 -43.5t70.5 -16.5q25 0 50.5 13.5t48 37.5t39 58.5t24.5 76.5q6 35 -0.5 84t-20.5 106.5t-32 120t-34 124.5t-27.5 119.5t-11.5 105.5q0 16 11.5 25t26 10.5t26 -4t11.5 -18.5 q0 -63 11.5 -122.5t27.5 -117.5t33.5 -114.5t30.5 -113.5t18.5 -115.5t-2.5 -118.5q-6 -41 -25 -80t-49 -70t-69 -51t-84 -23q-39 -2 -81 16t-78 49.5t-62.5 72t-33.5 84.5zM22 851q-2 13 6.5 26t23 22t32 14.5t34 4t28.5 -10.5t15 -27q3 -17 -5.5 -31.5t-23 -24.5t-32 -14 t-34 -1.5t-29 12.5t-15.5 30z" />
<glyph unicode="k" horiz-adv-x="584" d="M72 30q-3 47 -5 111t-4 139.5t-4 159.5t-4.5 171.5t-6.5 175t-9 170.5q-1 9 10 16.5t24 9.5t24.5 -3.5t12.5 -21.5l17 -534q43 27 79 57.5t68 63.5t63.5 69.5t65.5 77.5q8 10 25 12.5t30.5 -2t18.5 -17t-10 -31.5q-39 -51 -76 -91t-73.5 -74t-73 -65t-73.5 -65 q35 -14 82.5 -41.5t99 -63.5t103.5 -79t97 -88q13 -14 13 -32t-9 -31t-24.5 -15t-31.5 16q-66 75 -124 125t-105 80t-81.5 42.5t-52.5 13.5q0 -60 1 -125.5t1 -125.5q0 -21 -10 -31.5t-22.5 -11t-23.5 9t-12 28.5z" />
<glyph unicode="l" horiz-adv-x="182" d="M53 20q2 17 3 61t0.5 105.5t-1 136t-2 152t-2.5 153.5t-2 141t-1.5 114t0.5 72q0 14 12 21t25.5 7.5t25 -6.5t11.5 -22q0 -200 1.5 -342.5t3.5 -241t4 -159t4 -98t3.5 -58.5t1.5 -39q0 -14 -14.5 -22t-31.5 -8.5t-30 7.5t-11 26z" />
<glyph unicode="m" horiz-adv-x="767" d="M64 25q4 61 7.5 130t1 137.5t-11.5 131.5t-30 113q-6 14 0.5 22t17.5 11t22.5 0t15.5 -11q10 -19 17 -40.5t12.5 -43t8.5 -42t5 -36.5q12 28 31 65t44.5 70.5t57 56.5t68.5 23q36 0 58.5 -19t35 -47.5t17.5 -61.5t8 -61q13 17 26.5 38.5t31 40t39.5 31.5t52 13 q38 0 63.5 -19t41.5 -51t23 -73.5t8.5 -87t-1.5 -91.5t-7.5 -86t-9 -71t-6.5 -47q-1 -11 -14.5 -16t-28 -4t-25.5 8.5t-8 21.5q5 21 11.5 62t11 91t5.5 102.5t-5.5 94.5t-22 68t-42.5 24q-22 -2 -41 -26t-34.5 -61t-28.5 -83t-22 -91t-15 -85.5t-8 -67.5q-1 -15 -13.5 -19 t-27 0t-25.5 14t-9 22q4 23 9 65t8.5 91.5t4 101.5t-5 95t-17.5 71.5t-34 30.5q-27 3 -53.5 -22t-48 -60.5t-37 -72.5t-21.5 -59q-36 -144 -36 -291q0 -14 -12 -21t-26 -7.5t-25.5 6.5t-10.5 22z" />
<glyph unicode="n" horiz-adv-x="583" d="M56 33q7 36 11.5 98.5t1.5 136.5t-14 151t-33 141q-4 12 -0.5 26.5t12.5 23.5t22.5 8.5t28.5 -17.5q12 -18 19.5 -53t13 -72.5t9 -69.5t6.5 -43q9 54 23.5 105.5t38 92.5t58.5 68.5t87 33.5q44 5 77 -14t56.5 -54.5t39 -84.5t24.5 -104t13 -112.5t4 -109.5t-2 -95.5 t-5 -70.5q-2 -14 -16.5 -19t-30.5 -2t-28 14.5t-8 31.5q12 56 15 120.5t-1 127t-15 119t-29 98.5t-42 64t-53 16q-33 -7 -57.5 -36.5t-43 -74.5t-32.5 -101.5t-26.5 -118t-25 -124t-28.5 -119.5q-4 -5 -14.5 -9t-22 -3t-21.5 8t-12 23z" />
<glyph unicode="o" horiz-adv-x="556" d="M44 214q0 46 5 88t14.5 81.5t23.5 78.5t32 80q-3 13 10.5 31t39.5 26q60 15 123.5 10.5t115 -32.5t85 -82.5t33.5 -141.5q0 -62 -21.5 -123t-61 -109.5t-94.5 -79t-122 -30.5q-42 0 -75.5 16.5t-57.5 44t-37 64.5t-13 78zM115 223q0 -25 7.5 -50.5t22 -45.5t35.5 -33 t47 -13q47 0 89 23t74 61t50.5 87.5t18.5 102.5q0 59 -22 99t-57.5 61.5t-80 24t-90.5 -13.5q-17 -3 -33.5 -34t-30 -76t-22 -97t-8.5 -96z" />
<glyph unicode="p" horiz-adv-x="555" d="M25 601q-2 33 15.5 47t43.5 17t55.5 -1t52.5 -7q45 -7 96.5 -26.5t96.5 -50.5t78 -73t41 -94q13 -82 -16 -143t-84.5 -104t-129 -68t-149.5 -35q0 -53 0.5 -88t2 -63.5t3.5 -56t4 -66.5q1 -21 -9.5 -32t-24 -11t-25.5 11t-13 33zM96 579q7 -38 9.5 -95.5t4 -118t3 -117 t7.5 -93.5q49 -8 107.5 6.5t107.5 46t79 77.5t22 101q-5 36 -25 66t-50 54t-65.5 41.5t-71.5 27t-69.5 11.5t-57.5 -4q0 -1 -0.5 -1t-0.5 -1v-1z" />
<glyph unicode="q" horiz-adv-x="466" d="M307 111q-28 -26 -54 -40.5t-64 -14.5q-18 0 -39.5 5.5t-42 20t-38 40t-26.5 65.5q-10 43 -11 95t6.5 106t24 104.5t43.5 89.5t64.5 63t86.5 24q50 0 82.5 -17t51.5 -45.5t26 -65.5t7 -76t-4.5 -77.5t-9.5 -70.5q-5 -35 -12.5 -88.5t-11.5 -113t-1.5 -119.5t15.5 -108 t39.5 -78t72.5 -30q30 0 53.5 13t41 33t29 43.5t18.5 43.5q5 16 18 20t25 -1.5t20 -19t3 -32.5q-12 -47 -35 -81t-52 -55.5t-62 -32t-65 -10.5q-57 0 -93.5 31t-58.5 76t-31 96t-11 91q0 9 -1 25t-1.5 33t-1.5 33t-1 25zM259 595q-38 0 -66 -21t-47 -55t-30.5 -77 t-15.5 -85.5t-1 -81t11 -64.5q11 -35 31.5 -58.5t54.5 -21.5q25 2 48.5 28t41.5 60.5t30.5 69t16.5 54.5q10 49 13.5 94.5t-4 80.5t-27.5 56t-56 21z" />
<glyph unicode="r" horiz-adv-x="564" d="M85 33q2 46 6.5 107t1.5 133t-18 151.5t-51 161.5q-7 16 0 30t19 20t26 2t21 -24q3 -10 11.5 -36t18 -55t17.5 -55t11 -36q17 46 50 89.5t80.5 70.5t108.5 30t134 -31q16 -8 16.5 -22t-9 -26.5t-24.5 -19.5t-28 -1q-57 28 -106 20t-87.5 -40t-64 -82.5t-36.5 -108.5 q-6 -32 -9.5 -71t-5 -78t-1.5 -74v-58q0 -18 -12.5 -26t-28 -7.5t-28.5 10t-12 26.5z" />
<glyph unicode="s" horiz-adv-x="522" d="M43 20q-15 8 -17.5 23t4 28t21 19.5t34.5 -3.5q31 -15 68.5 -16.5t76 8t73.5 27t59.5 41t36 50.5t2.5 55q-5 16 -33 24.5t-67 15t-84.5 14t-86 21.5t-70.5 37.5t-39 62.5q-8 37 16 80t71.5 79.5t112 60t137.5 20.5q14 0 23.5 -13t10.5 -28t-7 -26t-28 -7q-39 7 -85 -3 t-85.5 -31.5t-65.5 -51.5t-24 -63q1 -26 28 -40t66.5 -22t86 -13t88 -14t72.5 -24.5t39 -43.5q12 -43 -0.5 -85t-42 -78.5t-74 -65t-97 -44t-109 -15.5t-111.5 21z" />
<glyph unicode="t" horiz-adv-x="610" d="M196 558q-13 -2 -34 -6.5t-43.5 -9.5t-42.5 -9t-32 -4q-17 0 -26 9.5t-10.5 22t5.5 24t23 14.5q17 4 61 12t101 25q1 9 3 32.5t3.5 53t3 63t3 63t3 52.5t3.5 33q4 28 16 38.5t24.5 9t22 -12t8.5 -25.5q-2 -26 -4.5 -64t-4.5 -79t-3.5 -79.5t-1.5 -64.5q66 12 141.5 31.5 t159.5 41.5q17 4 28 -4t14 -20t-3 -25t-24 -17q-38 -10 -80.5 -21.5t-84.5 -23t-82 -22.5t-73 -20q0 -21 -3 -66.5t-4 -102t2 -116t14.5 -108.5t34 -80.5t61.5 -31.5q32 0 54.5 10t39 26t28 35t22.5 37q10 19 23.5 20t24 -8.5t14.5 -25t-3 -29.5q-11 -20 -28 -43.5t-41 -44 t-56 -34.5t-74 -15q-61 -2 -98.5 28.5t-58.5 80t-28 112t-7 125t4 119t5 94.5z" />
<glyph unicode="u" horiz-adv-x="718" d="M217 0q-48 0 -81 24t-54 63.5t-32 91.5t-15 108.5t-2.5 113.5t5 106.5t7.5 88t6 57.5q1 13 14 19.5t27.5 6.5t25.5 -6.5t10 -18.5q-3 -23 -7 -60.5t-6.5 -82t-4 -94t0.5 -98t8.5 -92.5t19 -77.5t31.5 -54t46 -21.5q46 -2 80.5 31.5t59.5 87t41 118.5t25 126t12.5 110 t2.5 71t11 31t26.5 9t27 -7.5t12.5 -18.5v-71t1 -89.5t3 -97.5t7 -95.5t12.5 -83.5t19.5 -61q14 -26 34 -30.5t49 22.5q15 7 25 2t15.5 -15t4.5 -22t-9 -19q-23 -24 -49 -33.5t-51.5 -6.5t-47.5 19.5t-36 45.5t-20.5 60.5t-11.5 82.5q-20 -50 -43.5 -93.5t-53.5 -76 t-66 -51.5t-80 -19z" />
<glyph unicode="v" horiz-adv-x="551" d="M28 595q-9 19 -2 35.5t21 24t29.5 3t23.5 -26.5q27 -77 47.5 -146.5t39 -134t36.5 -125t39 -119.5q12 14 29 53.5t36.5 92t39 111.5t36 113t28 96.5t15.5 61.5q4 21 17.5 27t27.5 1t24 -17.5t7 -27.5q-8 -35 -22.5 -84.5t-32.5 -105.5t-38.5 -115t-41 -112t-40 -96 t-35.5 -68q-11 -17 -26.5 -27.5t-32 -10.5t-31.5 13t-24 42l-170 542v0z" />
<glyph unicode="w" horiz-adv-x="805" d="M38 654q1 13 12.5 20.5t24.5 8.5t23.5 -4.5t9.5 -18.5q-2 -36 -6 -93.5t-6.5 -122.5t-1.5 -130.5t8 -118.5t23 -87t43 -34q23 -1 44.5 20t40 55.5t34 79t28.5 90.5t22.5 90t15.5 79q4 21 15.5 31t25 10.5t24.5 -7t13 -20.5q5 -31 10 -69.5t12.5 -77.5t19 -75.5 t28.5 -62.5t40.5 -38t56.5 -2q36 11 60 41t36 71.5t12.5 90.5t-11 97.5t-35 92.5t-58.5 75q-11 9 -7 21t14.5 20.5t25 10.5t26.5 -8q41 -36 68 -89.5t39 -113.5t8.5 -122t-22.5 -114.5t-54.5 -90.5t-88.5 -50q-43 -10 -75 -2.5t-55.5 25t-40 42.5t-27 50.5t-17 48 t-10.5 35.5q-7 -16 -16 -45t-21.5 -63.5t-29 -70.5t-39 -64.5t-50.5 -47t-64 -17.5q-25 1 -47.5 8.5t-40.5 31.5t-30.5 67.5t-18.5 116.5t-4 178t13 252z" />
<glyph unicode="x" horiz-adv-x="501" d="M100 7q-13 -6 -25.5 -3t-21.5 11t-12 18.5t2 18.5q18 28 35.5 55.5t35.5 57.5t37.5 63.5t40.5 71.5l-163 299q-10 13 -5.5 25.5t16 19t25.5 3.5t23 -20l147 -259q16 18 37.5 51.5t47 75t53.5 86.5t57 85q8 11 19.5 10t20.5 -9.5t11.5 -21.5t-6.5 -25q-13 -17 -31 -45.5 t-38.5 -61.5t-41 -68t-38 -65t-30.5 -51.5t-17 -28.5q6 -21 29 -56.5t52.5 -71.5t58.5 -67.5t46 -44.5q15 -12 14.5 -25t-10.5 -22t-25 -11t-29 7q-18 12 -44.5 42.5t-53 65t-49.5 66t-33 45.5l-135 -221v0z" />
<glyph unicode="y" horiz-adv-x="552" d="M68 -110q-3 16 5.5 25.5t20 12t22.5 -2t14 -16.5q7 -32 21.5 -58t34 -44.5t41.5 -29t44 -10.5q55 -1 90 28.5t54.5 77t26 106.5t6 117t-6.5 108t-11 80q-9 -48 -27 -92.5t-44 -78.5t-60.5 -54t-76.5 -20q-48 0 -81.5 24t-56 63.5t-34.5 91t-17 107t-4 110.5t5 102 q1 15 13 21.5t25 5t23 -9.5t9 -20q-2 -28 -4 -70.5t-0.5 -89.5t8 -94t20.5 -84.5t37 -61t58 -23.5q43 0 72 29.5t47 76t26.5 104t11 113t0 103t-6.5 75.5q-3 20 7 31t23.5 12.5t26 -6t14.5 -23.5q6 -52 17.5 -119t22.5 -142t19.5 -153t8.5 -152t-11 -139t-38.5 -114.5 t-75 -78t-119.5 -29.5q-41 0 -75 16t-60 43t-42.5 61.5t-22.5 70.5z" />
<glyph unicode="z" horiz-adv-x="603" d="M159 1q-46 -3 -70.5 10.5t-10.5 45.5q16 33 54.5 93t88.5 142l-163 -8q-15 -1 -21.5 9t-6 23t7.5 24t18 12q35 4 62 5.5t50.5 3t44.5 3.5t43 6l105 206q-30 -7 -71.5 -15t-85 -14.5t-84.5 -10t-71 -2.5q-10 0 -17 12.5t-7.5 26t8 24.5t28.5 8q19 -3 53 -2.5t76 6t89.5 16 t95.5 28.5q26 10 41 6.5t22.5 -12.5t9 -19t1.5 -12q-1 -13 -9 -33.5t-19.5 -45t-25.5 -50t-26.5 -48t-23 -41t-15.5 -27.5q22 -1 47 1.5t50 6t50 8t48 7.5q20 3 31.5 -8t13.5 -25t-7 -27.5t-30 -14.5l-232 -19l-131 -231q29 -3 64 -2t72 4t73 7.5t66 9.5t52.5 8.5t32.5 5.5 q12 1 18.5 -9.5t6.5 -24.5t-7 -26.5t-23 -13.5z" />
<glyph unicode="{" horiz-adv-x="422" d="M184 48q-8 45 -0.5 88.5t19.5 85.5t23.5 83.5t11.5 83.5q0 22 -13 32t-34 13.5t-46.5 1.5t-49.5 -4q-20 -2 -30 10t-10 26.5t9 27.5t28 15q25 2 51 7t47 16t34.5 29.5t13.5 48.5q0 37 -19.5 72t-42.5 70.5t-42.5 73t-19.5 80.5q0 36 18.5 65t49 49t70 30t82.5 8 q16 -1 23 -10.5t6 -21t-8.5 -21.5t-20.5 -11q-32 -3 -58.5 -8.5t-46.5 -15.5t-31 -26t-11 -40q0 -44 19 -80t41.5 -71t41.5 -72t19 -81q0 -20 -9 -37t-19.5 -31.5t-19 -25t-8.5 -16.5q12 -6 23.5 -15.5t21 -21.5t15.5 -26.5t5 -30.5q-4 -50 -18 -95t-27.5 -86.5t-22.5 -79 t-2 -71.5q8 -32 39 -53t88 -35q13 -3 15.5 -16.5t-2.5 -27t-16.5 -22t-25.5 -1.5q-20 0 -46 11t-50 29.5t-42.5 43.5t-22.5 53z" />
<glyph unicode="|" horiz-adv-x="767" d="M443 197q-15 -13 -29.5 -21.5t-31 -10t-35.5 5.5t-43 26q-68 54 -124 122.5t-89.5 138.5t-39.5 133t26 107q30 41 68.5 55t78.5 8.5t78.5 -28t70.5 -55.5q30 37 68.5 61t78 28.5t76 -14t63.5 -66.5q18 -32 20 -70.5t-8 -81.5t-31.5 -88t-51.5 -89t-67 -85t-78 -76z M133 637q-12 -31 -3 -78.5t39 -101.5t81 -110.5t123 -105.5q71 48 120.5 104.5t78.5 111t37 102t-4 78.5q-14 36 -38 48.5t-51.5 6.5t-55.5 -28t-49 -55q0 -6 -10 -12t-23.5 -7.5t-26.5 3.5t-19 22q-26 27 -54.5 47.5t-56 27t-50.5 -5t-38 -47.5z" />
<glyph unicode="}" d="M267 48q-5 -28 -23 -53t-42 -43.5t-50 -29.5t-46 -11q-14 -7 -25.5 1.5t-16.5 22t-2.5 27t15.5 16.5q57 14 88 35t39 53q7 34 -2 71.5t-22.5 79t-27.5 86.5t-18 95q-1 16 5 30.5t15.5 26.5t21 21.5t23.5 15.5q0 6 -9 16.5t-19.5 25t-19 31.5t-8.5 37q0 44 19 81t41.5 72 t41.5 71t19 80q0 24 -11 40t-31 26t-47 15.5t-58 8.5q-13 1 -21 11t-8.5 21.5t6.5 21t23 10.5q43 2 82.5 -8t70 -30t49 -49t18.5 -65q0 -43 -19.5 -80.5t-42.5 -73t-42.5 -70.5t-19.5 -72q0 -30 13.5 -48.5t34.5 -29.5t47 -16t51 -7q19 -2 28 -15t9 -27.5t-10 -26.5t-30 -10 q-24 2 -49.5 4t-46.5 -1.5t-34 -13.5t-13 -32q0 -42 11 -83.5t23 -83.5t19.5 -85.5t0.5 -88.5z" />
<glyph unicode="~" horiz-adv-x="680" d="M198 426q-18 -5 -32 -17.5t-25 -29t-21 -35t-20 -33.5q-8 -11 -19 -13t-21 2.5t-15.5 13.5t-1.5 21q12 25 26 50.5t31 48t37.5 39t47.5 22.5q40 9 75.5 -7.5t67.5 -39.5t62 -42.5t58 -17.5q45 4 74.5 36t38.5 88q5 7 14 8.5t18 -1.5t16 -10t10 -17q-2 -35 -17.5 -65.5 t-38.5 -53.5t-51 -38t-54 -18q-28 -3 -52.5 5t-46 22t-41 30.5t-39 29.5t-39.5 20t-42 2z" />
<glyph unicode="&#xa1;" horiz-adv-x="259" d="M155.006 727.012q4 -45.9971 7 -105.994q2.99902 -59.9961 5.49902 -126.492t4.5 -136.491q2 -69.9961 3 -136.992q1 -66.9951 1 -126.992q0 -59.9961 -1 -106.993q-1 -17.999 -12 -30.498q-10.999 -12.499 -26.998 -18.499t-34.498 -6t-33.998 5.5t-24.998 16.499 t-8.49902 26.998l44.9971 743.955q1 9.99902 12.499 16.499q11.499 6.49902 24.998 7.49902q13.5 1 25.499 -3.99902q11.999 -5 12.999 -17.999zM99.0088 906.001q36.998 7.99902 52.9971 -5t14.499 -32.498t-18.499 -36.998t-46.9971 -17.499q-23.998 0 -36.4971 12.5 q-12.5 12.499 -12.5 27.998t12 30.498q11.999 14.999 34.9971 20.999z" />
<glyph unicode="&#xa2;" horiz-adv-x="602" d="M255 38q2 14 2.5 44.5t1.5 75.5q-52 4 -91 26t-65 57.5t-39 81t-13 96.5q0 62 12 126t37 119.5t64 97.5t93 60q1 51 2 88t3 54q1 14 11.5 21.5t22 7.5t21 -6.5t9.5 -21.5v-131h4q22 0 48.5 -9.5t48.5 -31.5t36 -59.5t12 -92.5q0 -14 -11.5 -20.5t-25 -6t-24 8.5t-9.5 25 q2 30 -3 52.5t-15 37.5t-23.5 22.5t-26.5 7.5q-3 0 -5.5 -0.5t-5.5 -0.5q0 -97 1 -176.5t2 -144t2 -114.5t3 -89q29 7 57.5 20.5t54 31.5t47 39t37.5 43q9 12 23 11.5t24 -11t11 -28t-15 -38.5q-44 -57 -105.5 -96t-130.5 -53q2 -39 4 -60.5t3.5 -32t3 -14.5t1.5 -9 q1 -22 -14.5 -33t-34 -11.5t-33 9t-12.5 27.5zM134 431q0 -35 6 -68t20.5 -59.5t38.5 -44.5t60 -22q0 57 -0.5 121.5t-0.5 130.5t-0.5 131t-0.5 125q-33 -21 -56.5 -57t-38.5 -79.5t-21.5 -90t-6.5 -87.5z" />
<glyph unicode="&#xa3;" horiz-adv-x="668" d="M609 69q15 -4 20 -17t2 -26t-14 -21t-28 0q-12 5 -37.5 8.5t-59.5 5t-72 1.5t-74 -2.5t-67 -6.5t-50 -10q-26 -8 -40 -3.5t-15 35.5l-11 387l-86 -15q-21 -6 -35 0.5t-17.5 18t4.5 24.5t31 20l97 22q2 43 -1 96t-4 106.5t4 105t23.5 92t54.5 65.5t97 28q41 2 73.5 -7.5 t58 -28.5t46.5 -45.5t40 -59.5q12 -21 5.5 -34.5t-20 -18t-28 0t-18.5 18.5q-10 36 -32 58t-46.5 34.5t-46.5 16.5t-32 3q-53 -6 -78 -40.5t-33 -90.5t-4 -130t9 -158l290 46q16 1 27 -7.5t13.5 -20t-4.5 -23.5t-27 -16l-291 -48l14 -363q39 6 76 11.5t79 7.5t92 -2t115 -17 z" />
<glyph unicode="&#xa8;" horiz-adv-x="408" d="M51 731q-2 32 17 50t43 21.5t45 -7.5t22 -37q1 -22 -18.5 -36t-43 -18.5t-44 2t-21.5 25.5zM244 738q-2 32 17 50t43 21.5t45 -7.5t22 -37q1 -22 -18.5 -36t-43 -18.5t-44 2t-21.5 25.5z" />
<glyph unicode="&#xa9;" horiz-adv-x="848" d="M204 465q0 58 14 115.5t43 103t73 74t104 28.5q18 0 41.5 -6t43.5 -23.5t33 -50t12 -86.5q0 -11 -11.5 -17t-24.5 -6.5t-23.5 5t-9.5 19.5q2 25 -2.5 43t-12.5 30t-18.5 18t-21.5 6q-45 0 -76.5 -27t-51 -67.5t-28.5 -88.5t-9 -90q0 -30 6 -58t19.5 -50.5t36.5 -36 t56 -13.5q28 0 57.5 9.5t56.5 25.5t50 36.5t39 42.5q7 10 20 8t23 -11.5t12 -25t-11 -32.5q-21 -27 -50 -52t-62.5 -44t-69.5 -30t-70 -10q-53 1 -89 26t-58 63t-31.5 83.5t-9.5 88.5zM387 3q-83 -1 -145.5 30t-105.5 84.5t-67.5 124t-30.5 148.5q-6 68 2 138.5t28 136.5 t52.5 123.5t76.5 100.5t99 68t121 25q63 0 117.5 -21.5t99 -58t79.5 -85t58.5 -102.5t36 -110.5t12.5 -108.5q0 -57 -14 -115.5t-40.5 -113t-65 -102t-86.5 -83.5t-105 -57t-122 -22zM412 908q-51 0 -94.5 -22t-79 -59.5t-62 -87.5t-43.5 -107t-23.5 -118t-0.5 -119 q6 -62 25.5 -118t53.5 -99t82.5 -69.5t110.5 -29.5q57 -3 106 14.5t90 48t72 72.5t53 88.5t33 95.5t11 94q0 79 -24.5 153.5t-68.5 133t-105.5 94t-135.5 35.5z" />
<glyph unicode="&#xab;" horiz-adv-x="680" d="M342 448q12 7 24 2.5t19.5 -15t6.5 -22.5t-14 -19q-20 -11 -52 -29t-67 -39t-70 -41.5t-60 -35.5q16 -10 48 -25t68.5 -30t71 -27t55.5 -16q14 -3 18.5 -14t2 -22.5t-12 -19.5t-22.5 -5q-36 9 -74.5 22.5t-75 28.5t-69.5 30t-60 27q-12 5 -20 18.5t-9 29.5t6 31.5 t25 24.5zM576 462q12 7 24 2.5t19.5 -15t6.5 -22.5t-14 -19q-20 -11 -52 -29t-67 -39t-70 -41.5t-60 -35.5q16 -10 48 -25t68.5 -30t71 -27t55.5 -16q14 -3 18.5 -14t2 -22.5t-12 -19.5t-22.5 -5q-36 9 -74.5 22.5t-75 28.5t-69.5 30t-60 27q-12 5 -20 18.5t-9 29.5t6 31.5 t25 24.5z" />
<glyph unicode="&#xad;" d="M366 461q15 -4 23 -16t7.5 -24.5t-9.5 -21.5t-27 -7q-8 1 -28 1h-46.5t-56 -0.5t-56 -0.5t-47 -0.5t-27.5 -0.5q-14 0 -21 11t-6 23.5t9 23t23 10.5l262 2v0z" />
<glyph unicode="&#xae;" horiz-adv-x="848" d="M387 3q-83 -1 -145.5 30t-105.5 84.5t-67.5 124t-30.5 148.5q-6 68 2 138.5t28 136.5t52.5 123.5t76.5 100.5t99 68t121 25q63 0 117.5 -21.5t99 -58t79.5 -85t58.5 -102.5t36 -110.5t12.5 -108.5q0 -57 -14 -115.5t-40.5 -113t-65 -102t-86.5 -83.5t-105 -57t-122 -22z M412 908q-51 0 -94.5 -22t-79 -59.5t-62 -87.5t-43.5 -107t-23.5 -118t-0.5 -119q6 -62 25.5 -118t53.5 -99t82.5 -69.5t110.5 -29.5q57 -3 106 14.5t90 48t72 72.5t53 88.5t33 95.5t11 94q0 79 -24.5 153.5t-68.5 133t-105.5 94t-135.5 35.5zM285 266q0 91 -3 187.5 t-3 190.5q-2 -2 -3.5 -4t-7.5 -4q-9 -3 -17 4t-10.5 18.5t4 23.5t25.5 18q64 21 118.5 21.5t95 -14.5t64.5 -44.5t26 -69.5q2 -35 -14.5 -60t-40 -43t-49.5 -29.5t-43 -17.5q16 -5 37.5 -20t43 -35t41.5 -43t34 -45q4 -6 -3.5 -14t-18 -14t-21.5 -7.5t-15 4.5q-14 23 -30 46 t-37 42.5t-49 33.5t-66 19l3 -152q0 -4 -9.5 -5.5t-21 -0.5t-21 4.5t-9.5 9.5zM340 486q33 -1 64 7.5t55.5 23.5t39.5 35.5t15 43.5t-16.5 37.5t-42 20.5t-55 5t-54.5 -10q-3 2 -5 -14q-2 -14 -2.5 -47.5t1.5 -101.5z" />
<glyph unicode="&#xaf;" d="M346 761q15 -4 23 -16t7.5 -24.5t-9.5 -21.5t-27 -7q-7 1 -27.5 1h-47t-56 -0.5t-56 -0.5t-47 -0.5t-27.5 -0.5q-14 0 -21 11t-6 23.5t9 23t23 10.5l262 2v0z" />
<glyph unicode="&#xb4;" horiz-adv-x="266" d="M161 859q10 11 23.5 9t23 -10.5t12 -21t-7.5 -22.5l-21.5 -21.5l-28 -28l-28 -28t-20.5 -22.5q-12 -14 -24.5 -14t-21.5 8.5t-11.5 22.5t5.5 27z" />
<glyph unicode="&#xb8;" horiz-adv-x="260" d="M71 -223q-12 0 -19.5 10t-8.5 22t6 22t25 10q38 0 57.5 15.5t21 34t-15.5 33t-53 11.5q-21 -2 -28.5 20.5t3.5 74.5h55l6 -47q40 -1 63.5 -17t31 -38.5t1 -48.5t-25.5 -48.5t-49 -37.5t-70 -16z" />
<glyph unicode="&#xbb;" horiz-adv-x="671" d="M339 115q-12 -8 -24 -3t-19.5 15.5t-7 22.5t14.5 19q20 11 52 29t67 39t69.5 41.5t60.5 35.5q-16 10 -48 25t-68.5 30t-71 27t-55.5 16q-14 3 -18.5 14t-2 22.5t11.5 19.5t23 5q36 -9 74.5 -22.5t75 -28.5t69.5 -30t60 -27q12 -5 20 -18.5t9 -29.5t-6 -31.5t-25 -24.5z M105 101q-12 -8 -24 -3t-19.5 15.5t-7 22.5t14.5 19q20 11 52 29t67 39t69.5 41.5t60.5 35.5q-16 10 -48 25t-68.5 30t-71 27t-55.5 16q-14 3 -18.5 14t-2 22.5t11.5 19.5t23 5q36 -9 74.5 -22.5t75 -28.5t69.5 -30t60 -27q12 -5 20 -18.5t9 -29.5t-6 -31.5t-25 -24.5z" />
<glyph unicode="&#xbf;" horiz-adv-x="671" d="M375.018 732.01q32.998 -56.9971 39.4971 -106.494q6.5 -49.4971 -6.49902 -92.4941q-13 -42.9971 -40.498 -81.9951q-27.498 -38.9971 -61.4961 -75.4951t-69.9961 -71.9961q-35.9971 -35.4971 -65.4961 -72.4951q-29.498 -36.998 -48.9971 -76.9951 q-19.498 -39.998 -20.498 -84.9951q0 -20.999 13.499 -37.498t34.498 -27.998q20.998 -11.499 45.4971 -17.499q24.498 -5.99902 44.4971 -5.99902q18.999 0 46.9971 2.49902q27.998 2.5 57.9971 10.5q29.998 7.99902 59.9961 22.498t54.4961 37.498 q24.499 22.999 40.498 56.9961q15.999 33.998 17.999 79.9951q1 21.999 13.499 30.499q12.499 8.49902 27.498 7.99902t26.998 -8.99902q12 -8.5 12 -20.499q0 -75.9951 -30.998 -131.492q-30.998 -55.4961 -80.9951 -91.9941t-112.993 -53.9971t-126.992 -17.499 q-36.998 0 -74.9961 7.5q-37.9971 7.49902 -69.4951 26.498t-51.4971 49.9971t-19.999 76.9951q0 56.9971 18.499 104.494t46.9971 88.4941q28.498 40.998 63.4961 76.9951q34.998 35.998 67.9961 69.9961t59.9961 66.4961q26.999 32.498 39.998 66.9961t7.99902 71.9951 q-5 37.498 -35.998 80.4951q-11.999 16.999 -4.99902 31.498q6.99902 14.499 21.998 21.499q14.999 6.99902 32.998 4.99902q17.999 -1.99902 26.999 -16.998zM269.023 898.999q36.998 8 52.9971 -5q15.999 -12.999 14.499 -32.498q-1.5 -19.498 -18.499 -36.9971 t-46.9971 -17.499q-23.998 0 -36.498 12.499q-12.499 12.499 -12.499 27.998t11.999 30.498q12 15 34.998 20.999z" />
<glyph unicode="&#xc0;" horiz-adv-x="731" d="M616 38q-2 17 -7.5 47.5t-13.5 67t-17.5 75.5t-19.5 74t-19.5 62.5t-17.5 40.5q-84 0 -165 -8t-164 -22q-3 -7 -8.5 -30t-12.5 -55t-15 -69t-15 -73t-12.5 -67t-7.5 -51q-3 -20 -16.5 -26.5t-27.5 -2.5t-24.5 16t-6.5 29l184 814q7 54 29.5 86.5t56.5 36.5q31 4 61 -23.5 t58 -77.5t54.5 -117t50.5 -143.5t45.5 -157t40.5 -157t34.5 -144t27.5 -117.5q4 -19 -5.5 -31t-23.5 -14t-27 6.5t-16 30.5zM217 456q70 0 139 11t141 14q1 8 -7 42t-22.5 80t-33.5 98t-39.5 96.5t-41 74.5t-37.5 33zM417 1075q8 -13 5.5 -27t-11.5 -22.5t-21.5 -8.5 t-24.5 14q-8 9 -21 22.5t-27.5 28l-28 28l-21.5 21.5q-10 10 -7.5 22.5t12 21t22.5 10.5t24 -9l99 -101v0z" />
<glyph unicode="&#xc1;" horiz-adv-x="731" d="M616 38q-2 17 -7.5 47.5t-13.5 67t-17.5 75.5t-19.5 74t-19.5 62.5t-17.5 40.5q-84 0 -165 -8t-164 -22q-3 -7 -8.5 -30t-12.5 -55t-15 -69t-15 -73t-12.5 -67t-7.5 -51q-3 -20 -16.5 -26.5t-27.5 -2.5t-24.5 16t-6.5 29l184 814q7 54 29.5 86.5t56.5 36.5q31 4 61 -23.5 t58 -77.5t54.5 -117t50.5 -143.5t45.5 -157t40.5 -157t34.5 -144t27.5 -117.5q4 -19 -5.5 -31t-23.5 -14t-27 6.5t-16 30.5zM217 456q70 0 139 11t141 14q1 8 -7 42t-22.5 80t-33.5 98t-39.5 96.5t-41 74.5t-37.5 33zM387 1176q10 11 23.5 9t23 -10.5t12 -21t-7.5 -22.5 l-21.5 -21.5l-28 -28l-28 -28t-20.5 -22.5q-12 -14 -24.5 -14t-21.5 8.5t-11.5 22.5t5.5 27z" />
<glyph unicode="&#xc2;" horiz-adv-x="731" d="M616 38q-2 17 -7.5 47.5t-13.5 67t-17.5 75.5t-19.5 74t-19.5 62.5t-17.5 40.5q-84 0 -165 -8t-164 -22q-3 -7 -8.5 -30t-12.5 -55t-15 -69t-15 -73t-12.5 -67t-7.5 -51q-3 -20 -16.5 -26.5t-27.5 -2.5t-24.5 16t-6.5 29l184 814q7 54 29.5 86.5t56.5 36.5q31 4 61 -23.5 t58 -77.5t54.5 -117t50.5 -143.5t45.5 -157t40.5 -157t34.5 -144t27.5 -117.5q4 -19 -5.5 -31t-23.5 -14t-27 6.5t-16 30.5zM217 456q70 0 139 11t141 14q1 8 -7 42t-22.5 80t-33.5 98t-39.5 96.5t-41 74.5t-37.5 33zM277 1152q4 6 12.5 10t19 3t21 -6t18.5 -17l81 -82 q8 -13 5.5 -27t-11.5 -22.5t-21.5 -8.5t-24.5 14q-11 11 -30.5 31.5t-38.5 39.5q-18 -18 -36.5 -37t-28.5 -30q-12 -14 -24.5 -14t-21.5 8.5t-11.5 22.5t5.5 27z" />
<glyph unicode="&#xc3;" horiz-adv-x="731" d="M616 38q-2 17 -7.5 47.5t-13.5 67t-17.5 75.5t-19.5 74t-19.5 62.5t-17.5 40.5q-84 0 -165 -8t-164 -22q-3 -7 -8.5 -30t-12.5 -55t-15 -69t-15 -73t-12.5 -67t-7.5 -51q-3 -20 -16.5 -26.5t-27.5 -2.5t-24.5 16t-6.5 29l184 814q7 54 29.5 86.5t56.5 36.5q31 4 61 -23.5 t58 -77.5t54.5 -117t50.5 -143.5t45.5 -157t40.5 -157t34.5 -144t27.5 -117.5q4 -19 -5.5 -31t-23.5 -14t-27 6.5t-16 30.5zM217 456q70 0 139 11t141 14q1 8 -7 42t-22.5 80t-33.5 98t-39.5 96.5t-41 74.5t-37.5 33zM238 1142q-18 -5 -32 -17.5t-25 -29t-21 -35t-20 -33.5 q-8 -11 -19 -13t-21 2.5t-15.5 13.5t-1.5 21q12 25 26 50.5t31 48t37.5 39t47.5 22.5q40 9 75.5 -7.5t67.5 -39.5t62 -42.5t58 -17.5q45 4 74.5 36t38.5 88q5 7 14 8.5t18 -1.5t16 -10t10 -17q-2 -35 -17.5 -65.5t-38.5 -53.5t-51 -38t-54 -18q-28 -3 -52.5 5t-46 22 t-41 30.5t-39 29.5t-39.5 20t-42 2z" />
<glyph unicode="&#xc4;" horiz-adv-x="731" d="M616 38q-2 17 -7.5 47.5t-13.5 67t-17.5 75.5t-19.5 74t-19.5 62.5t-17.5 40.5q-84 0 -165 -8t-164 -22q-3 -7 -8.5 -30t-12.5 -55t-15 -69t-15 -73t-12.5 -67t-7.5 -51q-3 -20 -16.5 -26.5t-27.5 -2.5t-24.5 16t-6.5 29l184 814q7 54 29.5 86.5t56.5 36.5q31 4 61 -23.5 t58 -77.5t54.5 -117t50.5 -143.5t45.5 -157t40.5 -157t34.5 -144t27.5 -117.5q4 -19 -5.5 -31t-23.5 -14t-27 6.5t-16 30.5zM217 456q70 0 139 11t141 14q1 8 -7 42t-22.5 80t-33.5 98t-39.5 96.5t-41 74.5t-37.5 33zM167 1033q-2 32 17 50t43 21.5t45 -7.5t22 -37 q1 -22 -18.5 -36t-43 -18.5t-44 2t-21.5 25.5zM360 1040q-2 32 17 50t43 21.5t45 -7.5t22 -37q1 -22 -18.5 -36t-43 -18.5t-44 2t-21.5 25.5z" />
<glyph unicode="&#xc5;" horiz-adv-x="731" d="M616 38q-2 17 -7.5 47.5t-13.5 67t-17.5 75.5t-19.5 74t-19.5 62.5t-17.5 40.5q-84 0 -165 -8t-164 -22q-3 -7 -8.5 -30t-12.5 -55t-15 -69t-15 -73t-12.5 -67t-7.5 -51q-3 -20 -16.5 -26.5t-27.5 -2.5t-24.5 16t-6.5 29l184 814q7 54 29.5 86.5t56.5 36.5q31 4 61 -23.5 t58 -77.5t54.5 -117t50.5 -143.5t45.5 -157t40.5 -157t34.5 -144t27.5 -117.5q4 -19 -5.5 -31t-23.5 -14t-27 6.5t-16 30.5zM217 456q70 0 139 11t141 14q1 8 -7 42t-22.5 80t-33.5 98t-39.5 96.5t-41 74.5t-37.5 33zM310 1273q48 1 78 -17t44 -45.5t13 -59.5t-15.5 -60 t-40.5 -46.5t-62 -18.5q-44 0 -74 18t-45.5 45t-16.5 59t11.5 59.5t39.5 46t68 19.5zM318 1207q-35 -1 -48.5 -19t-10.5 -39.5t20 -38.5t44 -16q25 1 39.5 19t15.5 39t-13.5 38.5t-46.5 16.5z" />
<glyph unicode="&#xc6;" horiz-adv-x="1161" d="M746 -3q-46 -4 -79.5 11.5t-57 45.5t-37.5 71.5t-21 91t-8 104t2 110.5l-203 -15q-5 -6 -22 -31.5t-40 -61.5t-49.5 -78.5t-51 -83t-44 -74.5t-27.5 -52q-8 -17 -23 -18.5t-28 6.5t-19 22.5t3 29.5l489 760q31 34 53 50.5t41 24t38 9t45 6.5q77 14 175 25t207 31 q17 3 29 -5.5t14.5 -21.5t-6.5 -27t-34 -21q-22 -6 -54.5 -11t-70 -9t-78 -8t-78 -8.5t-69.5 -9.5t-53 -12q-14 -5 -23.5 -41.5t-17 -87t-12.5 -104t-10 -92.5q31 2 72.5 7.5t86.5 14.5t90 20.5t83 26.5q23 9 41.5 2.5t26 -19.5t0.5 -28t-35 -22q-51 -14 -93.5 -24t-85 -19 t-89 -19.5t-105.5 -24.5q0 -12 -2.5 -43.5t-2 -72.5t5.5 -85.5t19.5 -82t40 -62t67.5 -24.5q30 0 74.5 9.5t91 23t87.5 27.5t63 23q25 6 42.5 3t24 -12t1.5 -22.5t-26 -28.5q-18 -13 -47.5 -24.5t-65 -21.5t-73.5 -18.5t-72 -14.5t-60.5 -10t-39.5 -5zM550 505 q8 90 21.5 166t21.5 122l-204 -307z" />
<glyph unicode="&#xc7;" horiz-adv-x="674" d="M42 384q0 63 10 134t31 140.5t53.5 132t77 108.5t101.5 71t128 18q15 -2 35 -12t38.5 -29t31.5 -47.5t13 -65.5q0 -16 -11 -25t-24 -11t-23.5 3.5t-9.5 18.5q2 25 -5 43t-18.5 30t-26.5 18t-30 5q-50 -3 -92 -29t-75.5 -68t-58.5 -96t-41 -112t-24 -116.5t-7 -109.5 q1 -52 12.5 -105.5t38 -97t70.5 -72t109 -30.5q84 -2 138.5 48.5t87.5 143.5q6 18 20.5 22.5t28 -1t21.5 -20t1 -33.5q-18 -53 -47 -98.5t-67 -78.5t-86 -51t-105 -16q-81 3 -137.5 37.5t-91.5 89t-50.5 122.5t-15.5 139zM323 -228q-12 0 -19.5 10t-8.5 22t6 22t25 10 q38 0 57.5 15.5t21 34t-15.5 33t-53 11.5q-21 -2 -28.5 20.5t3.5 74.5h55l6 -47q40 -1 63.5 -17t31 -38.5t1 -48.5t-25.5 -48.5t-49 -37.5t-70 -16z" />
<glyph unicode="&#xc8;" horiz-adv-x="676" d="M261 -3q-63 -5 -103 25t-63 82.5t-31 122.5t-6.5 145.5t10 151t18 139.5t18.5 110t11 63q3 25 10.5 41.5t20.5 26.5t31.5 14.5t44.5 6.5q78 5 175.5 20.5t206.5 35.5q17 3 29 -5.5t14.5 -21.5t-6.5 -27t-34 -21q-22 -6 -54.5 -11t-70 -9t-78 -8t-78 -8.5t-69.5 -9.5 t-53 -12q-14 -5 -23.5 -41.5t-17 -87t-12.5 -104t-10 -92.5q31 2 72.5 7.5t86.5 14.5t90 20.5t83 26.5q23 9 41.5 2.5t26 -19.5t0.5 -28t-35 -22q-51 -14 -93.5 -24t-85 -19t-89 -19.5t-105.5 -24.5q0 -12 -2.5 -43.5t-2 -72.5t5.5 -85.5t19.5 -82t40 -62t67.5 -24.5 q30 0 74.5 9.5t91 23t87.5 27.5t63 23q25 6 42.5 3t24 -12t1.5 -22.5t-26 -28.5q-18 -13 -47.5 -24.5t-65 -21.5t-73.5 -18.5t-72 -14.5t-60.5 -10t-39.5 -5zM415 1075q8 -13 5.5 -27t-11.5 -22.5t-21.5 -8.5t-24.5 14q-8 9 -21 22.5t-27.5 28l-28 28l-21.5 21.5 q-10 10 -7.5 22.5t12 21t22.5 10.5t24 -9l99 -101v0z" />
<glyph unicode="&#xc9;" horiz-adv-x="676" d="M261 -3q-63 -5 -103 25t-63 82.5t-31 122.5t-6.5 145.5t10 151t18 139.5t18.5 110t11 63q3 25 10.5 41.5t20.5 26.5t31.5 14.5t44.5 6.5q78 5 175.5 20.5t206.5 35.5q17 3 29 -5.5t14.5 -21.5t-6.5 -27t-34 -21q-22 -6 -54.5 -11t-70 -9t-78 -8t-78 -8.5t-69.5 -9.5 t-53 -12q-14 -5 -23.5 -41.5t-17 -87t-12.5 -104t-10 -92.5q31 2 72.5 7.5t86.5 14.5t90 20.5t83 26.5q23 9 41.5 2.5t26 -19.5t0.5 -28t-35 -22q-51 -14 -93.5 -24t-85 -19t-89 -19.5t-105.5 -24.5q0 -12 -2.5 -43.5t-2 -72.5t5.5 -85.5t19.5 -82t40 -62t67.5 -24.5 q30 0 74.5 9.5t91 23t87.5 27.5t63 23q25 6 42.5 3t24 -12t1.5 -22.5t-26 -28.5q-18 -13 -47.5 -24.5t-65 -21.5t-73.5 -18.5t-72 -14.5t-60.5 -10t-39.5 -5zM359 1176q10 11 23.5 9t23 -10.5t12 -21t-7.5 -22.5l-21.5 -21.5l-28 -28l-28 -28t-20.5 -22.5q-12 -14 -24.5 -14 t-21.5 8.5t-11.5 22.5t5.5 27z" />
<glyph unicode="&#xca;" horiz-adv-x="676" d="M261 -3q-63 -5 -103 25t-63 82.5t-31 122.5t-6.5 145.5t10 151t18 139.5t18.5 110t11 63q3 25 10.5 41.5t20.5 26.5t31.5 14.5t44.5 6.5q78 5 175.5 20.5t206.5 35.5q17 3 29 -5.5t14.5 -21.5t-6.5 -27t-34 -21q-22 -6 -54.5 -11t-70 -9t-78 -8t-78 -8.5t-69.5 -9.5 t-53 -12q-14 -5 -23.5 -41.5t-17 -87t-12.5 -104t-10 -92.5q31 2 72.5 7.5t86.5 14.5t90 20.5t83 26.5q23 9 41.5 2.5t26 -19.5t0.5 -28t-35 -22q-51 -14 -93.5 -24t-85 -19t-89 -19.5t-105.5 -24.5q0 -12 -2.5 -43.5t-2 -72.5t5.5 -85.5t19.5 -82t40 -62t67.5 -24.5 q30 0 74.5 9.5t91 23t87.5 27.5t63 23q25 6 42.5 3t24 -12t1.5 -22.5t-26 -28.5q-18 -13 -47.5 -24.5t-65 -21.5t-73.5 -18.5t-72 -14.5t-60.5 -10t-39.5 -5zM305 1158q4 6 12.5 10t19 3t21 -6t18.5 -17l81 -82q8 -13 5.5 -27t-11.5 -22.5t-21.5 -8.5t-24.5 14 q-11 11 -30.5 31.5t-38.5 39.5q-18 -18 -36.5 -37t-28.5 -30q-12 -14 -24.5 -14t-21.5 8.5t-11.5 22.5t5.5 27z" />
<glyph unicode="&#xcb;" horiz-adv-x="676" d="M261 -3q-63 -5 -103 25t-63 82.5t-31 122.5t-6.5 145.5t10 151t18 139.5t18.5 110t11 63q3 25 10.5 41.5t20.5 26.5t31.5 14.5t44.5 6.5q78 5 175.5 20.5t206.5 35.5q17 3 29 -5.5t14.5 -21.5t-6.5 -27t-34 -21q-22 -6 -54.5 -11t-70 -9t-78 -8t-78 -8.5t-69.5 -9.5 t-53 -12q-14 -5 -23.5 -41.5t-17 -87t-12.5 -104t-10 -92.5q31 2 72.5 7.5t86.5 14.5t90 20.5t83 26.5q23 9 41.5 2.5t26 -19.5t0.5 -28t-35 -22q-51 -14 -93.5 -24t-85 -19t-89 -19.5t-105.5 -24.5q0 -12 -2.5 -43.5t-2 -72.5t5.5 -85.5t19.5 -82t40 -62t67.5 -24.5 q30 0 74.5 9.5t91 23t87.5 27.5t63 23q25 6 42.5 3t24 -12t1.5 -22.5t-26 -28.5q-18 -13 -47.5 -24.5t-65 -21.5t-73.5 -18.5t-72 -14.5t-60.5 -10t-39.5 -5zM179 1048q-2 32 17 50t43 21.5t45 -7.5t22 -37q1 -22 -18.5 -36t-43 -18.5t-44 2t-21.5 25.5zM372 1055 q-2 32 17 50t43 21.5t45 -7.5t22 -37q1 -22 -18.5 -36t-43 -18.5t-44 2t-21.5 25.5z" />
<glyph unicode="&#xcc;" horiz-adv-x="652" d="M95 7q-11 0 -19 8t-9.5 18.5t5.5 20.5t25 13t42.5 3t49 -0.5t46 -0.5t32.5 3v32t1 78t2 111t2.5 132t2.5 140.5t2.5 136t3 119t2.5 90.5q-44 0 -92 -3t-92 -3q-23 0 -32.5 9.5t-9 21.5t11.5 21.5t30 9.5q18 4 65.5 6.5t111.5 4t138 2t146 -0.5q22 0 31 -11t7.5 -24 t-11.5 -23.5t-26 -10.5h-205q-4 -45 -7 -113t-4.5 -148t-2 -165t-0.5 -163v-143v-105h242q12 0 20 -9t9.5 -20t-5 -20.5t-24.5 -11.5q-7 -1 -25.5 -1.5t-42.5 -1.5t-51.5 -1.5t-51.5 -1t-42.5 -1t-25.5 -0.5q-11 -14 -16.5 -20t-22.5 -6q-14 0 -22.5 3.5t-16.5 22.5z M403 1075q8 -13 5.5 -27t-11.5 -22.5t-21.5 -8.5t-24.5 14q-8 9 -21 22.5t-27.5 28l-28 28l-21.5 21.5q-10 10 -7.5 22.5t12 21t22.5 10.5t24 -9l99 -101v0z" />
<glyph unicode="&#xcd;" horiz-adv-x="640" d="M84 7q-11 0 -19 8t-9.5 18.5t5.5 20.5t25 13t42.5 3t49 -0.5t46 -0.5t32.5 3v32t1 78t2 111t2.5 132t2.5 140.5t2.5 136t3 119t2.5 90.5q-44 0 -92 -3t-92 -3q-23 0 -32.5 9.5t-9 21.5t11.5 21.5t30 9.5q18 4 65.5 6.5t111.5 4t138 2t146 -0.5q22 0 31 -11t7.5 -24 t-11.5 -23.5t-26 -10.5h-205q-4 -45 -7 -113t-4.5 -148t-2 -165t-0.5 -163v-143v-105h242q12 0 20 -9t9.5 -20t-5 -20.5t-24.5 -11.5q-7 -1 -25.5 -1.5t-42.5 -1.5t-51.5 -1.5t-51.5 -1t-42.5 -1t-25.5 -0.5q-11 -14 -16.5 -20t-22.5 -6q-14 0 -22.5 3.5t-16.5 22.5z M341 1176q10 11 23.5 9t23 -10.5t12 -21t-7.5 -22.5l-21.5 -21.5l-28 -28l-28 -28t-20.5 -22.5q-12 -14 -24.5 -14t-21.5 8.5t-11.5 22.5t5.5 27z" />
<glyph unicode="&#xce;" horiz-adv-x="652" d="M95 7q-11 0 -19 8t-9.5 18.5t5.5 20.5t25 13t42.5 3t49 -0.5t46 -0.5t32.5 3v32t1 78t2 111t2.5 132t2.5 140.5t2.5 136t3 119t2.5 90.5q-44 0 -92 -3t-92 -3q-23 0 -32.5 9.5t-9 21.5t11.5 21.5t30 9.5q18 4 65.5 6.5t111.5 4t138 2t146 -0.5q22 0 31 -11t7.5 -24 t-11.5 -23.5t-26 -10.5h-205q-4 -45 -7 -113t-4.5 -148t-2 -165t-0.5 -163v-143v-105h242q12 0 20 -9t9.5 -20t-5 -20.5t-24.5 -11.5q-7 -1 -25.5 -1.5t-42.5 -1.5t-51.5 -1.5t-51.5 -1t-42.5 -1t-25.5 -0.5q-11 -14 -16.5 -20t-22.5 -6q-14 0 -22.5 3.5t-16.5 22.5z M293 1158q4 6 12.5 10t19 3t21 -6t18.5 -17l81 -82q8 -13 5.5 -27t-11.5 -22.5t-21.5 -8.5t-24.5 14q-11 11 -30.5 31.5t-38.5 39.5q-18 -18 -36.5 -37t-28.5 -30q-12 -14 -24.5 -14t-21.5 8.5t-11.5 22.5t5.5 27z" />
<glyph unicode="&#xcf;" horiz-adv-x="652" d="M95 7q-11 0 -19 8t-9.5 18.5t5.5 20.5t25 13t42.5 3t49 -0.5t46 -0.5t32.5 3v32t1 78t2 111t2.5 132t2.5 140.5t2.5 136t3 119t2.5 90.5q-44 0 -92 -3t-92 -3q-23 0 -32.5 9.5t-9 21.5t11.5 21.5t30 9.5q18 4 65.5 6.5t111.5 4t138 2t146 -0.5q22 0 31 -11t7.5 -24 t-11.5 -23.5t-26 -10.5h-205q-4 -45 -7 -113t-4.5 -148t-2 -165t-0.5 -163v-143v-105h242q12 0 20 -9t9.5 -20t-5 -20.5t-24.5 -11.5q-7 -1 -25.5 -1.5t-42.5 -1.5t-51.5 -1.5t-51.5 -1t-42.5 -1t-25.5 -0.5q-11 -14 -16.5 -20t-22.5 -6q-14 0 -22.5 3.5t-16.5 22.5z M167 1048q-2 32 17 50t43 21.5t45 -7.5t22 -37q1 -22 -18.5 -36t-43 -18.5t-44 2t-21.5 25.5zM360 1055q-2 32 17 50t43 21.5t45 -7.5t22 -37q1 -22 -18.5 -36t-43 -18.5t-44 2t-21.5 25.5z" />
<glyph unicode="&#xd0;" horiz-adv-x="720" d="M141 -48q-17 -6 -27.5 0t-13.5 17.5t2.5 25.5t20.5 25q7 5 15.5 7.5l17 5t16.5 5.5t13 10q1 19 1 61.5t-0.5 100.5t-1 127t-1.5 140.5t-2 141t-1.5 128t-1.5 102.5t-2 65h-123q-14 -6 -23.5 3t-10.5 22t8.5 24t33.5 10q6 1 22 2t34.5 2.5t35 2.5t22.5 1q-2 25 8 39t23 15 t24 -12.5t13 -41.5q86 -8 170 -40.5t147.5 -90.5t97.5 -141.5t21 -192.5q-14 -115 -65.5 -204.5t-125.5 -158t-164.5 -118t-182.5 -83.5zM245 908q0 -96 1 -201.5t2.5 -212.5t4.5 -211t6 -195q31 16 67 37.5t73 49.5t72 63t63 77.5t48 93.5t26 111q10 93 -17 166t-79 123 t-121.5 75.5t-145.5 23.5zM364 523q15 -4 23 -16t7.5 -24.5t-9.5 -21.5t-27 -7q-7 1 -27.5 1h-47t-56 -0.5t-56 -0.5t-47 -0.5t-27.5 -0.5q-14 0 -21 11t-6 23.5t9 23t23 10.5l262 2v0z" />
<glyph unicode="&#xd1;" horiz-adv-x="776" d="M104 33q0 -12 -11.5 -19t-25 -8t-24.5 5t-12 20q0 7 0.5 41.5t2 87.5t3.5 119.5t4 137t4 140.5t4 130t3 105.5t2 66.5q-2 9 5.5 18t19 13t24 0t20.5 -22q15 -50 34.5 -113.5t43 -132.5t50.5 -140t58 -136t65 -120.5t71.5 -93t77.5 -53.5t82 -3q29 9 43.5 44.5t18.5 88.5 t-1.5 119.5t-18 138t-30 143.5t-37 135t-40 114t-38.5 80q-7 12 -2 27t16.5 24.5t26.5 8t27 -22.5q25 -43 50.5 -106.5t47.5 -138.5t39.5 -157t27 -161t9 -151.5t-14 -128.5t-42.5 -91.5t-76 -40.5q-68 -8 -125.5 19.5t-105.5 77t-87.5 115.5t-71.5 136.5t-58 139.5t-46 124 zM194 1119q-18 -5 -32 -17.5t-25 -29t-21 -35t-20 -33.5q-8 -11 -19 -13t-21 2.5t-15.5 13.5t-1.5 21q12 25 26 50.5t31 48t37.5 39t47.5 22.5q40 9 75.5 -7.5t67.5 -39.5t62 -42.5t58 -17.5q45 4 74.5 36t38.5 88q5 7 14 8.5t18 -1.5t16 -10t10 -17q-2 -35 -17.5 -65.5 t-38.5 -53.5t-51 -38t-54 -18q-28 -3 -52.5 5t-46 22t-41 30.5t-39 29.5t-39.5 20t-42 2z" />
<glyph unicode="&#xd2;" horiz-adv-x="858" d="M383 -1q-83 -1 -145.5 30t-105.5 84.5t-67.5 124t-30.5 148.5q-6 69 2 139t28 136t52.5 123.5t76.5 100.5t99 68t121 25q63 0 117.5 -21.5t99 -58t79.5 -85t58.5 -102.5t36 -110.5t12.5 -108.5q0 -57 -14 -115.5t-40.5 -113t-65 -102t-86.5 -83.5t-105 -57t-122 -22z M408 904q-50 0 -94 -22t-79.5 -59.5t-62 -87.5t-43.5 -107t-23.5 -118t-0.5 -119q6 -62 25.5 -118t53.5 -99t82.5 -69.5t110.5 -29.5q57 -2 106 15t90 47.5t72 72.5t53 88.5t33 95.5t11 94q0 79 -24.5 153.5t-68.5 133t-105.5 94t-135.5 35.5zM506 1075q8 -13 5.5 -27 t-11.5 -22.5t-21.5 -8.5t-24.5 14q-8 9 -21 22.5t-27.5 28l-28 28l-21.5 21.5q-10 10 -7.5 22.5t12 21t22.5 10.5t24 -9l99 -101v0z" />
<glyph unicode="&#xd3;" horiz-adv-x="858" d="M383 -1q-83 -1 -145.5 30t-105.5 84.5t-67.5 124t-30.5 148.5q-6 69 2 139t28 136t52.5 123.5t76.5 100.5t99 68t121 25q63 0 117.5 -21.5t99 -58t79.5 -85t58.5 -102.5t36 -110.5t12.5 -108.5q0 -57 -14 -115.5t-40.5 -113t-65 -102t-86.5 -83.5t-105 -57t-122 -22z M408 904q-50 0 -94 -22t-79.5 -59.5t-62 -87.5t-43.5 -107t-23.5 -118t-0.5 -119q6 -62 25.5 -118t53.5 -99t82.5 -69.5t110.5 -29.5q57 -2 106 15t90 47.5t72 72.5t53 88.5t33 95.5t11 94q0 79 -24.5 153.5t-68.5 133t-105.5 94t-135.5 35.5zM450 1176q10 11 23.5 9 t23 -10.5t12 -21t-7.5 -22.5l-21.5 -21.5l-28 -28l-28 -28t-20.5 -22.5q-12 -14 -24.5 -14t-21.5 8.5t-11.5 22.5t5.5 27z" />
<glyph unicode="&#xd4;" horiz-adv-x="858" d="M383 -1q-83 -1 -145.5 30t-105.5 84.5t-67.5 124t-30.5 148.5q-6 69 2 139t28 136t52.5 123.5t76.5 100.5t99 68t121 25q63 0 117.5 -21.5t99 -58t79.5 -85t58.5 -102.5t36 -110.5t12.5 -108.5q0 -57 -14 -115.5t-40.5 -113t-65 -102t-86.5 -83.5t-105 -57t-122 -22z M408 904q-50 0 -94 -22t-79.5 -59.5t-62 -87.5t-43.5 -107t-23.5 -118t-0.5 -119q6 -62 25.5 -118t53.5 -99t82.5 -69.5t110.5 -29.5q57 -2 106 15t90 47.5t72 72.5t53 88.5t33 95.5t11 94q0 79 -24.5 153.5t-68.5 133t-105.5 94t-135.5 35.5zM396 1158q4 6 12.5 10t19 3 t21 -6t18.5 -17l81 -82q8 -13 5.5 -27t-11.5 -22.5t-21.5 -8.5t-24.5 14q-11 11 -30.5 31.5t-38.5 39.5q-18 -18 -36.5 -37t-28.5 -30q-12 -14 -24.5 -14t-21.5 8.5t-11.5 22.5t5.5 27z" />
<glyph unicode="&#xd5;" horiz-adv-x="858" d="M383 -1q-83 -1 -145.5 30t-105.5 84.5t-67.5 124t-30.5 148.5q-6 69 2 139t28 136t52.5 123.5t76.5 100.5t99 68t121 25q63 0 117.5 -21.5t99 -58t79.5 -85t58.5 -102.5t36 -110.5t12.5 -108.5q0 -57 -14 -115.5t-40.5 -113t-65 -102t-86.5 -83.5t-105 -57t-122 -22z M408 904q-50 0 -94 -22t-79.5 -59.5t-62 -87.5t-43.5 -107t-23.5 -118t-0.5 -119q6 -62 25.5 -118t53.5 -99t82.5 -69.5t110.5 -29.5q57 -2 106 15t90 47.5t72 72.5t53 88.5t33 95.5t11 94q0 79 -24.5 153.5t-68.5 133t-105.5 94t-135.5 35.5zM301 1142q-18 -5 -32 -17.5 t-25 -29t-21 -35t-20 -33.5q-8 -11 -19 -13t-21 2.5t-15.5 13.5t-1.5 21q12 25 26 50.5t31 48t37.5 39t47.5 22.5q40 9 75.5 -7.5t67.5 -39.5t62 -42.5t58 -17.5q45 4 74.5 36t38.5 88q5 7 14 8.5t18 -1.5t16 -10t10 -17q-2 -35 -17.5 -65.5t-38.5 -53.5t-51 -38t-54 -18 q-28 -3 -52.5 5t-46 22t-41 30.5t-39 29.5t-39.5 20t-42 2z" />
<glyph unicode="&#xd6;" horiz-adv-x="858" d="M383 -1q-83 -1 -145.5 30t-105.5 84.5t-67.5 124t-30.5 148.5q-6 69 2 139t28 136t52.5 123.5t76.5 100.5t99 68t121 25q63 0 117.5 -21.5t99 -58t79.5 -85t58.5 -102.5t36 -110.5t12.5 -108.5q0 -57 -14 -115.5t-40.5 -113t-65 -102t-86.5 -83.5t-105 -57t-122 -22z M408 904q-50 0 -94 -22t-79.5 -59.5t-62 -87.5t-43.5 -107t-23.5 -118t-0.5 -119q6 -62 25.5 -118t53.5 -99t82.5 -69.5t110.5 -29.5q57 -2 106 15t90 47.5t72 72.5t53 88.5t33 95.5t11 94q0 79 -24.5 153.5t-68.5 133t-105.5 94t-135.5 35.5zM270 1048q-2 32 17 50t43 21.5 t45 -7.5t22 -37q1 -22 -18.5 -36t-43 -18.5t-44 2t-21.5 25.5zM463 1055q-2 32 17 50t43 21.5t45 -7.5t22 -37q1 -22 -18.5 -36t-43 -18.5t-44 2t-21.5 25.5z" />
<glyph unicode="&#xd7;" d="M123 479q-8 13 -5 27t12 23t21.5 9t24.5 -14q5 -7 21 -23l36 -36l67 72q13 8 27 5.5t23 -11.5t9.5 -21.5t-13.5 -24.5q-7 -6 -25 -25t-40 -42q28 -26 50.5 -48.5t30.5 -29.5q10 -10 7 -22t-12.5 -20.5t-23 -10.5t-23.5 9l-74 73q-24 -26 -43 -47t-26 -28 q-10 -10 -22 -7.5t-21 12t-11.5 22.5t8.5 24l67 70l-65 64v0z" />
<glyph unicode="&#xd8;" horiz-adv-x="858" d="M383 -1q-83 -1 -145.5 30t-105.5 84.5t-67.5 124t-30.5 148.5q-6 69 2 139t28 136t52.5 123.5t76.5 100.5t99 68t121 25q63 0 117.5 -21.5t99 -58t79.5 -85t58.5 -102.5t36 -110.5t12.5 -108.5q0 -57 -14 -115.5t-40.5 -113t-65 -102t-86.5 -83.5t-105 -57t-122 -22z M408 904q-50 0 -94 -22t-79.5 -59.5t-62 -87.5t-43.5 -107t-23.5 -118t-0.5 -119q6 -62 25.5 -118t53.5 -99t82.5 -69.5t110.5 -29.5q57 -2 106 15t90 47.5t72 72.5t53 88.5t33 95.5t11 94q0 79 -24.5 153.5t-68.5 133t-105.5 94t-135.5 35.5zM145 34q8 15 32.5 59.5 t58.5 108t75.5 141.5t85 158.5t85.5 159t77 143.5t60.5 112t35.5 64q7 12 20 12.5t25 -6.5t18.5 -18.5t-0.5 -24.5q-132 -243 -224.5 -415.5t-152 -285t-88 -169t-32.5 -65.5q-8 -21 -24.5 -25t-31 2t-22 19.5t1.5 29.5z" />
<glyph unicode="&#xd9;" horiz-adv-x="725" d="M287 8q-64 0 -108.5 42.5t-71.5 115t-39 167.5t-11 200.5t14 214t36 207.5q3 13 16.5 18.5t27.5 4.5t25 -8t8 -19q-38 -170 -48 -324.5t4 -273.5t50 -192t90 -80q61 -8 102.5 52t66 169.5t34.5 261t9 328.5q-1 22 11.5 33.5t27.5 12.5t27.5 -7t10.5 -25q-1 -27 -3.5 -84 t-3 -132t4 -161.5t19 -173.5t41 -168.5t70.5 -144.5q8 -12 2 -27t-18.5 -24.5t-28 -10.5t-26.5 16q-9 13 -22 46t-27 75.5t-26.5 90t-19.5 89.5q-14 -65 -37 -118t-54.5 -91t-70 -59t-82.5 -21zM440 1075q8 -13 5.5 -27t-11.5 -22.5t-21.5 -8.5t-24.5 14q-8 9 -21 22.5 t-27.5 28l-28 28l-21.5 21.5q-10 10 -7.5 22.5t12 21t22.5 10.5t24 -9l99 -101v0z" />
<glyph unicode="&#xda;" horiz-adv-x="725" d="M287 8q-64 0 -108.5 42.5t-71.5 115t-39 167.5t-11 200.5t14 214t36 207.5q3 13 16.5 18.5t27.5 4.5t25 -8t8 -19q-38 -170 -48 -324.5t4 -273.5t50 -192t90 -80q61 -8 102.5 52t66 169.5t34.5 261t9 328.5q-1 22 11.5 33.5t27.5 12.5t27.5 -7t10.5 -25q-1 -27 -3.5 -84 t-3 -132t4 -161.5t19 -173.5t41 -168.5t70.5 -144.5q8 -12 2 -27t-18.5 -24.5t-28 -10.5t-26.5 16q-9 13 -22 46t-27 75.5t-26.5 90t-19.5 89.5q-14 -65 -37 -118t-54.5 -91t-70 -59t-82.5 -21zM384 1176q10 11 23.5 9t23 -10.5t12 -21t-7.5 -22.5l-21.5 -21.5l-28 -28 l-28 -28t-20.5 -22.5q-12 -14 -24.5 -14t-21.5 8.5t-11.5 22.5t5.5 27z" />
<glyph unicode="&#xdb;" horiz-adv-x="725" d="M287 8q-64 0 -108.5 42.5t-71.5 115t-39 167.5t-11 200.5t14 214t36 207.5q3 13 16.5 18.5t27.5 4.5t25 -8t8 -19q-38 -170 -48 -324.5t4 -273.5t50 -192t90 -80q61 -8 102.5 52t66 169.5t34.5 261t9 328.5q-1 22 11.5 33.5t27.5 12.5t27.5 -7t10.5 -25q-1 -27 -3.5 -84 t-3 -132t4 -161.5t19 -173.5t41 -168.5t70.5 -144.5q8 -12 2 -27t-18.5 -24.5t-28 -10.5t-26.5 16q-9 13 -22 46t-27 75.5t-26.5 90t-19.5 89.5q-14 -65 -37 -118t-54.5 -91t-70 -59t-82.5 -21zM329 1158q4 6 12.5 10t19 3t21 -6t18.5 -17l81 -82q8 -13 5.5 -27t-11.5 -22.5 t-21.5 -8.5t-24.5 14q-11 11 -30.5 31.5t-38.5 39.5q-18 -18 -36.5 -37t-28.5 -30q-12 -14 -24.5 -14t-21.5 8.5t-11.5 22.5t5.5 27z" />
<glyph unicode="&#xdc;" horiz-adv-x="725" d="M287 8q-64 0 -108.5 42.5t-71.5 115t-39 167.5t-11 200.5t14 214t36 207.5q3 13 16.5 18.5t27.5 4.5t25 -8t8 -19q-38 -170 -48 -324.5t4 -273.5t50 -192t90 -80q61 -8 102.5 52t66 169.5t34.5 261t9 328.5q-1 22 11.5 33.5t27.5 12.5t27.5 -7t10.5 -25q-1 -27 -3.5 -84 t-3 -132t4 -161.5t19 -173.5t41 -168.5t70.5 -144.5q8 -12 2 -27t-18.5 -24.5t-28 -10.5t-26.5 16q-9 13 -22 46t-27 75.5t-26.5 90t-19.5 89.5q-14 -65 -37 -118t-54.5 -91t-70 -59t-82.5 -21zM204 1048q-2 32 17 50t43 21.5t45 -7.5t22 -37q1 -22 -18.5 -36t-43 -18.5 t-44 2t-21.5 25.5zM397 1055q-2 32 17 50t43 21.5t45 -7.5t22 -37q1 -22 -18.5 -36t-43 -18.5t-44 2t-21.5 25.5z" />
<glyph unicode="&#xdd;" horiz-adv-x="726" d="M362 491q0 2 -14.5 24t-50.5 71t-96.5 127.5t-152.5 192.5q-14 19 -11 35t13.5 25t24 10t20.5 -10q9 -14 29 -40.5t47 -61t57.5 -73.5t61 -77.5t58 -74.5t47.5 -63q28 39 56 81.5t57 90.5t60.5 102t68.5 116q6 10 18.5 12.5t24 -1t18 -13t-0.5 -23.5q-29 -57 -51.5 -99.5 t-42.5 -76t-38 -62t-37.5 -58.5t-42 -64.5t-50.5 -80.5q-3 -12 -2.5 -45.5t2.5 -78t5 -96t5.5 -99.5t4.5 -88t2 -62q0 -20 -11 -29t-24.5 -8.5t-25.5 10.5t-13 28zM384 1176q10 11 23.5 9t23 -10.5t12 -21t-7.5 -22.5l-21.5 -21.5l-28 -28l-28 -28t-20.5 -22.5 q-12 -14 -24.5 -14t-21.5 8.5t-11.5 22.5t5.5 27z" />
<glyph unicode="&#xde;" horiz-adv-x="573" d="M48 -194q-1 22 -1.5 70t-1 112.5t-1 141t-1 156.5t-0.5 158v145.5v119.5v80q0 10 10 16t22.5 7t23.5 -3.5t12 -15.5v-424q15 36 41.5 73.5t60.5 68.5t73.5 51t80.5 20q38 0 67 -13.5t49.5 -36.5t32 -54t13.5 -66q3 -42 -13 -88t-45 -91t-69 -86.5t-86.5 -74t-97.5 -53.5 t-101 -25l-3 -181q3 -10 -6.5 -21.5t-22.5 -16t-24.5 1t-12.5 29.5zM375 512q-45 0 -83 -24.5t-67.5 -63.5t-51 -87.5t-34 -98t-16 -94.5t3.5 -76q45 0 99.5 29.5t103 75.5t84 101.5t42.5 107.5q4 27 -0.5 51t-15 41.5t-27.5 27.5t-38 10z" />
<glyph unicode="&#xdf;" horiz-adv-x="592" d="M123 -64q0 -12 -10.5 -18.5t-23.5 -6.5t-24.5 7.5t-13.5 22.5l-1 861q0 64 33 105.5t82 61.5t107 17.5t107 -25.5t82 -67t33 -108q0 -41 -18.5 -80t-48.5 -75t-67 -68.5t-74 -60.5q46 -4 91.5 -21t82.5 -44.5t60 -64.5t23 -80q0 -65 -23 -120.5t-65 -97t-101 -66 t-130 -26.5q-25 -1 -34.5 10.5t-8.5 25.5t11 25.5t25 11.5q58 0 106.5 19t82 51.5t51 75.5t14.5 92q-2 25 -23 49.5t-57 44.5t-83.5 32.5t-100.5 12.5q-8 0 -19.5 9t-17.5 23t-2 31t27 32q24 16 62 46t74.5 66t63 74.5t27.5 72.5q1 33 -20.5 61t-55 45.5t-72.5 22.5 t-72.5 -6.5t-56 -42t-22.5 -84.5v-846z" />
<glyph unicode="&#xe0;" horiz-adv-x="532" d="M39 108q-11 47 3 89t45 76.5t74 61t91 42t95.5 18.5t86.5 -8q1 23 -1.5 56t-15 64t-38 53.5t-70.5 25.5q-27 1 -57 -3t-59.5 -13.5t-56 -23t-46.5 -30.5q-11 -9 -24 -6t-21 12t-9 22t12 25q24 23 59 40t73.5 28t76 16t67.5 3q63 -4 100 -33t56 -72t24 -92.5t5 -94.5 q0 -27 4 -52.5t7 -50.5t2.5 -49t-9.5 -47t-29 -45.5t-56 -44.5q-67 -41 -131.5 -61.5t-117.5 -18t-90.5 30t-49.5 82.5zM107 129q5 -28 22 -43t40.5 -19t52.5 0.5t58 14.5t57 23.5t51 28.5q5 3 18 13.5t23.5 30t13.5 49.5t-11 74q-38 20 -77.5 21.5t-77.5 -9.5t-70.5 -32.5 t-56.5 -47.5t-36 -53.5t-7 -50.5zM343 758q8 -13 5.5 -27t-11.5 -22.5t-21.5 -8.5t-24.5 14q-8 9 -21 22.5t-27.5 28l-28 28l-21.5 21.5q-10 10 -7.5 22.5t12 21t22.5 10.5t24 -9l99 -101v0z" />
<glyph unicode="&#xe1;" horiz-adv-x="532" d="M39 108q-11 47 3 89t45 76.5t74 61t91 42t95.5 18.5t86.5 -8q1 23 -1.5 56t-15 64t-38 53.5t-70.5 25.5q-27 1 -57 -3t-59.5 -13.5t-56 -23t-46.5 -30.5q-11 -9 -24 -6t-21 12t-9 22t12 25q24 23 59 40t73.5 28t76 16t67.5 3q63 -4 100 -33t56 -72t24 -92.5t5 -94.5 q0 -27 4 -52.5t7 -50.5t2.5 -49t-9.5 -47t-29 -45.5t-56 -44.5q-67 -41 -131.5 -61.5t-117.5 -18t-90.5 30t-49.5 82.5zM107 129q5 -28 22 -43t40.5 -19t52.5 0.5t58 14.5t57 23.5t51 28.5q5 3 18 13.5t23.5 30t13.5 49.5t-11 74q-38 20 -77.5 21.5t-77.5 -9.5t-70.5 -32.5 t-56.5 -47.5t-36 -53.5t-7 -50.5zM287 859q10 11 23.5 9t23 -10.5t12 -21t-7.5 -22.5l-21.5 -21.5l-28 -28l-28 -28t-20.5 -22.5q-12 -14 -24.5 -14t-21.5 8.5t-11.5 22.5t5.5 27z" />
<glyph unicode="&#xe2;" horiz-adv-x="532" d="M39 108q-11 47 3 89t45 76.5t74 61t91 42t95.5 18.5t86.5 -8q1 23 -1.5 56t-15 64t-38 53.5t-70.5 25.5q-27 1 -57 -3t-59.5 -13.5t-56 -23t-46.5 -30.5q-11 -9 -24 -6t-21 12t-9 22t12 25q24 23 59 40t73.5 28t76 16t67.5 3q63 -4 100 -33t56 -72t24 -92.5t5 -94.5 q0 -27 4 -52.5t7 -50.5t2.5 -49t-9.5 -47t-29 -45.5t-56 -44.5q-67 -41 -131.5 -61.5t-117.5 -18t-90.5 30t-49.5 82.5zM107 129q5 -28 22 -43t40.5 -19t52.5 0.5t58 14.5t57 23.5t51 28.5q5 3 18 13.5t23.5 30t13.5 49.5t-11 74q-38 20 -77.5 21.5t-77.5 -9.5t-70.5 -32.5 t-56.5 -47.5t-36 -53.5t-7 -50.5zM233 841q4 6 12.5 10t19 3t21 -6t18.5 -17l81 -82q8 -13 5.5 -27t-11.5 -22.5t-21.5 -8.5t-24.5 14q-11 11 -30.5 31.5t-38.5 39.5q-18 -18 -36.5 -37t-28.5 -30q-12 -14 -24.5 -14t-21.5 8.5t-11.5 22.5t5.5 27z" />
<glyph unicode="&#xe3;" horiz-adv-x="532" d="M39 108q-11 47 3 89t45 76.5t74 61t91 42t95.5 18.5t86.5 -8q1 23 -1.5 56t-15 64t-38 53.5t-70.5 25.5q-27 1 -57 -3t-59.5 -13.5t-56 -23t-46.5 -30.5q-11 -9 -24 -6t-21 12t-9 22t12 25q24 23 59 40t73.5 28t76 16t67.5 3q63 -4 100 -33t56 -72t24 -92.5t5 -94.5 q0 -27 4 -52.5t7 -50.5t2.5 -49t-9.5 -47t-29 -45.5t-56 -44.5q-67 -41 -131.5 -61.5t-117.5 -18t-90.5 30t-49.5 82.5zM107 129q5 -28 22 -43t40.5 -19t52.5 0.5t58 14.5t57 23.5t51 28.5q5 3 18 13.5t23.5 30t13.5 49.5t-11 74q-38 20 -77.5 21.5t-77.5 -9.5t-70.5 -32.5 t-56.5 -47.5t-36 -53.5t-7 -50.5zM140 825q-18 -5 -32 -17.5t-25 -29t-21 -35t-20 -33.5q-8 -11 -19 -13t-21 2.5t-15.5 13.5t-1.5 21q12 25 26 50.5t31 48t37.5 39t47.5 22.5q40 9 75.5 -7.5t67.5 -39.5t62 -42.5t58 -17.5q45 4 74.5 36t38.5 88q5 7 14 8.5t18 -1.5t16 -10 t10 -17q-2 -35 -17.5 -65.5t-38.5 -53.5t-51 -38t-54 -18q-28 -3 -52.5 5t-46 22t-41 30.5t-39 29.5t-39.5 20t-42 2z" />
<glyph unicode="&#xe4;" horiz-adv-x="532" d="M39 108q-11 47 3 89t45 76.5t74 61t91 42t95.5 18.5t86.5 -8q1 23 -1.5 56t-15 64t-38 53.5t-70.5 25.5q-27 1 -57 -3t-59.5 -13.5t-56 -23t-46.5 -30.5q-11 -9 -24 -6t-21 12t-9 22t12 25q24 23 59 40t73.5 28t76 16t67.5 3q63 -4 100 -33t56 -72t24 -92.5t5 -94.5 q0 -27 4 -52.5t7 -50.5t2.5 -49t-9.5 -47t-29 -45.5t-56 -44.5q-67 -41 -131.5 -61.5t-117.5 -18t-90.5 30t-49.5 82.5zM107 129q5 -28 22 -43t40.5 -19t52.5 0.5t58 14.5t57 23.5t51 28.5q5 3 18 13.5t23.5 30t13.5 49.5t-11 74q-38 20 -77.5 21.5t-77.5 -9.5t-70.5 -32.5 t-56.5 -47.5t-36 -53.5t-7 -50.5zM107 731q-2 32 17 50t43 21.5t45 -7.5t22 -37q1 -22 -18.5 -36t-43 -18.5t-44 2t-21.5 25.5zM300 738q-2 32 17 50t43 21.5t45 -7.5t22 -37q1 -22 -18.5 -36t-43 -18.5t-44 2t-21.5 25.5z" />
<glyph unicode="&#xe5;" horiz-adv-x="532" d="M39 108q-11 47 3 89t45 76.5t74 61t91 42t95.5 18.5t86.5 -8q1 23 -1.5 56t-15 64t-38 53.5t-70.5 25.5q-27 1 -57 -3t-59.5 -13.5t-56 -23t-46.5 -30.5q-11 -9 -24 -6t-21 12t-9 22t12 25q24 23 59 40t73.5 28t76 16t67.5 3q63 -4 100 -33t56 -72t24 -92.5t5 -94.5 q0 -27 4 -52.5t7 -50.5t2.5 -49t-9.5 -47t-29 -45.5t-56 -44.5q-67 -41 -131.5 -61.5t-117.5 -18t-90.5 30t-49.5 82.5zM107 129q5 -28 22 -43t40.5 -19t52.5 0.5t58 14.5t57 23.5t51 28.5q5 3 18 13.5t23.5 30t13.5 49.5t-11 74q-38 20 -77.5 21.5t-77.5 -9.5t-70.5 -32.5 t-56.5 -47.5t-36 -53.5t-7 -50.5zM251 944q48 1 78 -17t44 -45.5t13 -59.5t-15.5 -60t-40.5 -46.5t-62 -18.5q-44 0 -74 18t-45.5 45t-16.5 59t11.5 59.5t39.5 46t68 19.5zM259 878q-35 -1 -48.5 -19t-10.5 -39.5t20 -38.5t44 -16q25 1 39.5 19t15.5 39t-13.5 38.5 t-46.5 16.5z" />
<glyph unicode="&#xe6;" horiz-adv-x="1060" d="M339 650q40 -3 69.5 -16t49.5 -33.5t33 -47t20 -56.5q30 52 70.5 94.5t85.5 66t92.5 24t91.5 -30.5t50.5 -78t-13.5 -98t-61 -99t-93.5 -81.5t-111 -45.5t-112.5 10q7 -79 36.5 -124t73 -61t94.5 -6.5t100.5 38t92 72.5t67.5 98q7 16 20.5 19t24.5 -3t17 -18t-1 -26 q-65 -133 -157 -195t-197 -60q-63 1 -112 29t-81 78q-9 -8 -20 -15.5t-25 -15.5q-68 -39 -132.5 -59.5t-117.5 -18t-90 29t-49 81.5q-11 47 3 89t45 77t74 61t91 41.5t95.5 18.5t86.5 -8q1 23 -1.5 56t-15 64t-38 53.5t-70.5 25.5q-27 1 -57 -3t-59.5 -13.5t-56 -23 t-46.5 -30.5q-11 -9 -24 -6t-21 12t-9 22t12 25q24 23 59 40t73.5 28t76 16t67.5 3zM444 280v7.5t1 8.5q-37 19 -77 20.5t-77.5 -10t-70 -33t-56 -47t-35.5 -53t-7 -50.5q5 -28 22 -43t40.5 -19t52.5 0.5t58 14.5t57 23.5t51 28.5q15 13 29 21.5t27 14.5q-8 26 -12.5 55 t-2.5 61zM523 333q36 -22 78.5 -16t82.5 29.5t74 58.5t53.5 71t21.5 67.5t-22 48.5t-54.5 11.5t-62.5 -25.5t-62.5 -50.5t-54.5 -65t-39 -69t-15 -60.5z" />
<glyph unicode="&#xe7;" horiz-adv-x="602" d="M42 260q0 72 16 145.5t49.5 133.5t86.5 98t127 38q22 0 48.5 -9.5t48.5 -31.5t36 -59.5t12 -92.5q0 -14 -11.5 -20.5t-25 -6t-24 8.5t-9.5 25q2 30 -3 52.5t-15 37.5t-23.5 22.5t-26.5 7.5q-37 0 -66.5 -15.5t-52 -41.5t-38.5 -60t-26.5 -71.5t-15 -76t-4.5 -72.5 q0 -37 7 -72t24 -62.5t45 -44t69 -16.5q35 0 71.5 12t70 31.5t61.5 45t48 52.5q9 12 23 11.5t24 -11t11 -28t-15 -38.5q-26 -34 -59.5 -62t-71.5 -48.5t-79.5 -32t-83.5 -11.5q-57 0 -99.5 21t-71 57t-43 83.5t-14.5 100.5zM258 -228q-12 0 -19.5 10t-8.5 22t6 22t25 10 q38 0 57.5 15.5t21 34t-15.5 33t-53 11.5q-21 -2 -28.5 20.5t3.5 74.5h55l6 -47q40 -1 63.5 -17t31 -38.5t1 -48.5t-25.5 -48.5t-49 -37.5t-70 -16z" />
<glyph unicode="&#xe8;" horiz-adv-x="649" d="M33 280q2 55 21 112.5t49.5 109t70.5 93t84.5 64.5t91 23t90.5 -31t50.5 -78t-13.5 -98t-61 -99t-93.5 -81.5t-111 -45.5t-112.5 10q6 -79 36 -124t73.5 -61t94.5 -6.5t100.5 38t92 72.5t67.5 98q7 16 20.5 19t24.5 -3t17 -18t-1 -26q-65 -133 -157 -195t-197 -60 q-54 1 -99 23t-76.5 60t-47.5 90.5t-14 113.5zM112 333q37 -22 79 -16t82 29.5t74 58.5t53.5 71t21.5 67.5t-22 48.5q-36 25 -80.5 12t-86 -52t-74.5 -97t-47 -122zM402 758q8 -13 5.5 -27t-11.5 -22.5t-21.5 -8.5t-24.5 14q-8 9 -21 22.5t-27.5 28l-28 28l-21.5 21.5 q-10 10 -7.5 22.5t12 21t22.5 10.5t24 -9l99 -101v0z" />
<glyph unicode="&#xe9;" horiz-adv-x="649" d="M33 280q2 55 21 112.5t49.5 109t70.5 93t84.5 64.5t91 23t90.5 -31t50.5 -78t-13.5 -98t-61 -99t-93.5 -81.5t-111 -45.5t-112.5 10q6 -79 36 -124t73.5 -61t94.5 -6.5t100.5 38t92 72.5t67.5 98q7 16 20.5 19t24.5 -3t17 -18t-1 -26q-65 -133 -157 -195t-197 -60 q-54 1 -99 23t-76.5 60t-47.5 90.5t-14 113.5zM112 333q37 -22 79 -16t82 29.5t74 58.5t53.5 71t21.5 67.5t-22 48.5q-36 25 -80.5 12t-86 -52t-74.5 -97t-47 -122zM346 859q10 11 23.5 9t23 -10.5t12 -21t-7.5 -22.5l-21.5 -21.5l-28 -28l-28 -28t-20.5 -22.5 q-12 -14 -24.5 -14t-21.5 8.5t-11.5 22.5t5.5 27z" />
<glyph unicode="&#xea;" horiz-adv-x="649" d="M33 280q2 55 21 112.5t49.5 109t70.5 93t84.5 64.5t91 23t90.5 -31t50.5 -78t-13.5 -98t-61 -99t-93.5 -81.5t-111 -45.5t-112.5 10q6 -79 36 -124t73.5 -61t94.5 -6.5t100.5 38t92 72.5t67.5 98q7 16 20.5 19t24.5 -3t17 -18t-1 -26q-65 -133 -157 -195t-197 -60 q-54 1 -99 23t-76.5 60t-47.5 90.5t-14 113.5zM112 333q37 -22 79 -16t82 29.5t74 58.5t53.5 71t21.5 67.5t-22 48.5q-36 25 -80.5 12t-86 -52t-74.5 -97t-47 -122zM317 870q4 6 12.5 10t19 3t21 -6t18.5 -17l81 -82q8 -13 5.5 -27t-11.5 -22.5t-21.5 -8.5t-24.5 14 q-11 11 -30.5 31.5t-38.5 39.5q-18 -18 -36.5 -37t-28.5 -30q-12 -14 -24.5 -14t-21.5 8.5t-11.5 22.5t5.5 27z" />
<glyph unicode="&#xeb;" horiz-adv-x="649" d="M33 280q2 55 21 112.5t49.5 109t70.5 93t84.5 64.5t91 23t90.5 -31t50.5 -78t-13.5 -98t-61 -99t-93.5 -81.5t-111 -45.5t-112.5 10q6 -79 36 -124t73.5 -61t94.5 -6.5t100.5 38t92 72.5t67.5 98q7 16 20.5 19t24.5 -3t17 -18t-1 -26q-65 -133 -157 -195t-197 -60 q-54 1 -99 23t-76.5 60t-47.5 90.5t-14 113.5zM112 333q37 -22 79 -16t82 29.5t74 58.5t53.5 71t21.5 67.5t-22 48.5q-36 25 -80.5 12t-86 -52t-74.5 -97t-47 -122zM166 731q-2 32 17 50t43 21.5t45 -7.5t22 -37q1 -22 -18.5 -36t-43 -18.5t-44 2t-21.5 25.5zM359 738 q-2 32 17 50t43 21.5t45 -7.5t22 -37q1 -22 -18.5 -36t-43 -18.5t-44 2t-21.5 25.5z" />
<glyph unicode="&#xec;" horiz-adv-x="199" d="M56 559q-2 25 9.5 38.5t26 16t27.5 -5t13 -23.5q1 -25 2 -68.5t2.5 -96t4 -110.5t5 -112.5t6 -101t7.5 -76.5q2 -17 -9 -25.5t-25.5 -8.5t-28 9t-14.5 28zM178 758q8 -13 5.5 -27t-11.5 -22.5t-21.5 -8.5t-24.5 14q-8 9 -21 22.5t-27.5 28l-28 28l-21.5 21.5 q-10 10 -7.5 22.5t12 21t22.5 10.5t24 -9l99 -101v0z" />
<glyph unicode="&#xed;" horiz-adv-x="199" d="M56 559q-2 25 9.5 38.5t26 16t27.5 -5t13 -23.5q1 -25 2 -68.5t2.5 -96t4 -110.5t5 -112.5t6 -101t7.5 -76.5q2 -17 -9 -25.5t-25.5 -8.5t-28 9t-14.5 28zM122 859q10 11 23.5 9t23 -10.5t12 -21t-7.5 -22.5l-21.5 -21.5l-28 -28l-28 -28t-20.5 -22.5q-12 -14 -24.5 -14 t-21.5 8.5t-11.5 22.5t5.5 27z" />
<glyph unicode="&#xee;" horiz-adv-x="199" d="M56 559q-2 25 9.5 38.5t26 16t27.5 -5t13 -23.5q1 -25 2 -68.5t2.5 -96t4 -110.5t5 -112.5t6 -101t7.5 -76.5q2 -17 -9 -25.5t-25.5 -8.5t-28 9t-14.5 28zM68 841q4 6 12.5 10t19 3t21 -6t18.5 -17l81 -82q8 -13 5.5 -27t-11.5 -22.5t-21.5 -8.5t-24.5 14 q-11 11 -30.5 31.5t-38.5 39.5q-18 -18 -36.5 -37t-28.5 -30q-12 -14 -24.5 -14t-21.5 8.5t-11.5 22.5t5.5 27z" />
<glyph unicode="&#xef;" horiz-adv-x="199" d="M56 559q-2 25 9.5 38.5t26 16t27.5 -5t13 -23.5q1 -25 2 -68.5t2.5 -96t4 -110.5t5 -112.5t6 -101t7.5 -76.5q2 -17 -9 -25.5t-25.5 -8.5t-28 9t-14.5 28zM-58 731q-2 32 17 50t43 21.5t45 -7.5t22 -37q1 -22 -18.5 -36t-43 -18.5t-44 2t-21.5 25.5zM135 738q-2 32 17 50 t43 21.5t45 -7.5t22 -37q1 -22 -18.5 -36t-43 -18.5t-44 2t-21.5 25.5z" />
<glyph unicode="&#xf1;" horiz-adv-x="583" d="M56 33q7 36 11.5 98.5t1.5 136.5t-14 151t-33 141q-4 12 -0.5 26.5t12.5 23.5t22.5 8.5t28.5 -17.5q12 -18 19.5 -53t13 -72.5t9 -69.5t6.5 -43q9 54 23.5 105.5t38 92.5t58.5 68.5t87 33.5q44 5 77 -14t56.5 -54.5t39 -84.5t24.5 -104t13 -112.5t4 -109.5t-2 -95.5 t-5 -70.5q-2 -14 -16.5 -19t-30.5 -2t-28 14.5t-8 31.5q12 56 15 120.5t-1 127t-15 119t-29 98.5t-42 64t-53 16q-33 -7 -57.5 -36.5t-43 -74.5t-32.5 -101.5t-26.5 -118t-25 -124t-28.5 -119.5q-4 -5 -14.5 -9t-22 -3t-21.5 8t-12 23zM165 825q-18 -5 -32 -17.5t-25 -29 t-21 -35t-20 -33.5q-8 -11 -19 -13t-21 2.5t-15.5 13.5t-1.5 21q12 25 26 50.5t31 48t37.5 39t47.5 22.5q40 9 75.5 -7.5t67.5 -39.5t62 -42.5t58 -17.5q45 4 74.5 36t38.5 88q5 7 14 8.5t18 -1.5t16 -10t10 -17q-2 -35 -17.5 -65.5t-38.5 -53.5t-51 -38t-54 -18 q-28 -3 -52.5 5t-46 22t-41 30.5t-39 29.5t-39.5 20t-42 2z" />
<glyph unicode="&#xf2;" horiz-adv-x="556" d="M44 214q0 46 5 88t14.5 81.5t23.5 78.5t32 80q-3 13 10.5 31t39.5 26q60 15 123.5 10.5t115 -32.5t85 -82.5t33.5 -141.5q0 -62 -21.5 -123t-61 -109.5t-94.5 -79t-122 -30.5q-42 0 -75.5 16.5t-57.5 44t-37 64.5t-13 78zM115 223q0 -25 7.5 -50.5t22 -45.5t35.5 -33 t47 -13q47 0 89 23t74 61t50.5 87.5t18.5 102.5q0 59 -22 99t-57.5 61.5t-80 24t-90.5 -13.5q-17 -3 -33.5 -34t-30 -76t-22 -97t-8.5 -96zM355 758q8 -13 5.5 -27t-11.5 -22.5t-21.5 -8.5t-24.5 14q-8 9 -21 22.5t-27.5 28l-28 28l-21.5 21.5q-10 10 -7.5 22.5t12 21 t22.5 10.5t24 -9l99 -101v0z" />
<glyph unicode="&#xf3;" horiz-adv-x="556" d="M44 214q0 46 5 88t14.5 81.5t23.5 78.5t32 80q-3 13 10.5 31t39.5 26q60 15 123.5 10.5t115 -32.5t85 -82.5t33.5 -141.5q0 -62 -21.5 -123t-61 -109.5t-94.5 -79t-122 -30.5q-42 0 -75.5 16.5t-57.5 44t-37 64.5t-13 78zM115 223q0 -25 7.5 -50.5t22 -45.5t35.5 -33 t47 -13q47 0 89 23t74 61t50.5 87.5t18.5 102.5q0 59 -22 99t-57.5 61.5t-80 24t-90.5 -13.5q-17 -3 -33.5 -34t-30 -76t-22 -97t-8.5 -96zM299 859q10 11 23.5 9t23 -10.5t12 -21t-7.5 -22.5l-21.5 -21.5l-28 -28l-28 -28t-20.5 -22.5q-12 -14 -24.5 -14t-21.5 8.5 t-11.5 22.5t5.5 27z" />
<glyph unicode="&#xf4;" horiz-adv-x="556" d="M44 214q0 46 5 88t14.5 81.5t23.5 78.5t32 80q-3 13 10.5 31t39.5 26q60 15 123.5 10.5t115 -32.5t85 -82.5t33.5 -141.5q0 -62 -21.5 -123t-61 -109.5t-94.5 -79t-122 -30.5q-42 0 -75.5 16.5t-57.5 44t-37 64.5t-13 78zM115 223q0 -25 7.5 -50.5t22 -45.5t35.5 -33 t47 -13q47 0 89 23t74 61t50.5 87.5t18.5 102.5q0 59 -22 99t-57.5 61.5t-80 24t-90.5 -13.5q-17 -3 -33.5 -34t-30 -76t-22 -97t-8.5 -96zM245 841q4 6 12.5 10t19 3t21 -6t18.5 -17l81 -82q8 -13 5.5 -27t-11.5 -22.5t-21.5 -8.5t-24.5 14q-11 11 -30.5 31.5t-38.5 39.5 q-18 -18 -36.5 -37t-28.5 -30q-12 -14 -24.5 -14t-21.5 8.5t-11.5 22.5t5.5 27z" />
<glyph unicode="&#xf5;" horiz-adv-x="556" d="M44 214q0 46 5 88t14.5 81.5t23.5 78.5t32 80q-3 13 10.5 31t39.5 26q60 15 123.5 10.5t115 -32.5t85 -82.5t33.5 -141.5q0 -62 -21.5 -123t-61 -109.5t-94.5 -79t-122 -30.5q-42 0 -75.5 16.5t-57.5 44t-37 64.5t-13 78zM115 223q0 -25 7.5 -50.5t22 -45.5t35.5 -33 t47 -13q47 0 89 23t74 61t50.5 87.5t18.5 102.5q0 59 -22 99t-57.5 61.5t-80 24t-90.5 -13.5q-17 -3 -33.5 -34t-30 -76t-22 -97t-8.5 -96zM152 825q-18 -5 -32 -17.5t-25 -29t-21 -35t-20 -33.5q-8 -11 -19 -13t-21 2.5t-15.5 13.5t-1.5 21q12 25 26 50.5t31 48t37.5 39 t47.5 22.5q40 9 75.5 -7.5t67.5 -39.5t62 -42.5t58 -17.5q45 4 74.5 36t38.5 88q5 7 14 8.5t18 -1.5t16 -10t10 -17q-2 -35 -17.5 -65.5t-38.5 -53.5t-51 -38t-54 -18q-28 -3 -52.5 5t-46 22t-41 30.5t-39 29.5t-39.5 20t-42 2z" />
<glyph unicode="&#xf6;" horiz-adv-x="556" d="M44 214q0 46 5 88t14.5 81.5t23.5 78.5t32 80q-3 13 10.5 31t39.5 26q60 15 123.5 10.5t115 -32.5t85 -82.5t33.5 -141.5q0 -62 -21.5 -123t-61 -109.5t-94.5 -79t-122 -30.5q-42 0 -75.5 16.5t-57.5 44t-37 64.5t-13 78zM115 223q0 -25 7.5 -50.5t22 -45.5t35.5 -33 t47 -13q47 0 89 23t74 61t50.5 87.5t18.5 102.5q0 59 -22 99t-57.5 61.5t-80 24t-90.5 -13.5q-17 -3 -33.5 -34t-30 -76t-22 -97t-8.5 -96zM119 731q-2 32 17 50t43 21.5t45 -7.5t22 -37q1 -22 -18.5 -36t-43 -18.5t-44 2t-21.5 25.5zM312 738q-2 32 17 50t43 21.5t45 -7.5 t22 -37q1 -22 -18.5 -36t-43 -18.5t-44 2t-21.5 25.5z" />
<glyph unicode="&#xf7;" horiz-adv-x="414" d="M386 517q-37 -8 -53 5t-14.5 32.5t18.5 37t47 17.5q24 0 36.5 -12.5t12.5 -28t-12 -30.5t-35 -21zM377 228q-37 -8 -53 5t-14.5 32.5t18.5 37t47 17.5q24 0 36.5 -12.5t12.5 -28t-12 -30.5t-35 -21zM329 442q15 -4 23 -16t7.5 -24.5t-9.5 -21.5t-27 -7q-8 1 -28 1h-46.5 t-56 -0.5t-56 -0.5t-47 -0.5t-27.5 -0.5q-14 0 -21 11t-6 23.5t9 23t23 10.5l262 2v0z" />
<glyph unicode="&#xf8;" horiz-adv-x="556" d="M93 22q8 15 25 45.5t39 72t48 90.5t53 99.5t53.5 100t49.5 92.5t41 76t28 50q7 12 20 12.5t25 -6.5t18.5 -18.5t-0.5 -24.5q-89 -156 -149.5 -268.5t-98 -186t-55 -112.5t-21.5 -48q-8 -21 -24.5 -25t-31 2t-22 19.5t1.5 29.5zM44 214q0 46 5 88t14.5 81.5t23.5 78.5 t32 80q-3 13 10.5 31t39.5 26q60 15 123.5 10.5t115 -32.5t85 -82.5t33.5 -141.5q0 -62 -21.5 -123t-61 -109.5t-94.5 -79t-122 -30.5q-42 0 -75.5 16.5t-57.5 44t-37 64.5t-13 78zM115 223q0 -25 7.5 -50.5t22 -45.5t35.5 -33t47 -13q47 0 89 23t74 61t50.5 87.5 t18.5 102.5q0 59 -22 99t-57.5 61.5t-80 24t-90.5 -13.5q-17 -3 -33.5 -34t-30 -76t-22 -97t-8.5 -96z" />
<glyph unicode="&#xf9;" horiz-adv-x="718" d="M217 0q-48 0 -81 24t-54 63.5t-32 91.5t-15 108.5t-2.5 113.5t5 106.5t7.5 88t6 57.5q1 13 14 19.5t27.5 6.5t25.5 -6.5t10 -18.5q-3 -23 -7 -60.5t-6.5 -82t-4 -94t0.5 -98t8.5 -92.5t19 -77.5t31.5 -54t46 -21.5q46 -2 80.5 31.5t59.5 87t41 118.5t25 126t12.5 110 t2.5 71t11 31t26.5 9t27 -7.5t12.5 -18.5v-71t1 -89.5t3 -97.5t7 -95.5t12.5 -83.5t19.5 -61q14 -26 34 -30.5t49 22.5q15 7 25 2t15.5 -15t4.5 -22t-9 -19q-23 -24 -49 -33.5t-51.5 -6.5t-47.5 19.5t-36 45.5t-20.5 60.5t-11.5 82.5q-20 -50 -43.5 -93.5t-53.5 -76 t-66 -51.5t-80 -19zM363 760q8 -13 5.5 -27t-11.5 -22.5t-21.5 -8.5t-24.5 14q-8 9 -21 22.5t-27.5 28l-28 28l-21.5 21.5q-10 10 -7.5 22.5t12 21t22.5 10.5t24 -9l99 -101v0z" />
<glyph unicode="&#xfa;" horiz-adv-x="718" d="M217 0q-48 0 -81 24t-54 63.5t-32 91.5t-15 108.5t-2.5 113.5t5 106.5t7.5 88t6 57.5q1 13 14 19.5t27.5 6.5t25.5 -6.5t10 -18.5q-3 -23 -7 -60.5t-6.5 -82t-4 -94t0.5 -98t8.5 -92.5t19 -77.5t31.5 -54t46 -21.5q46 -2 80.5 31.5t59.5 87t41 118.5t25 126t12.5 110 t2.5 71t11 31t26.5 9t27 -7.5t12.5 -18.5v-71t1 -89.5t3 -97.5t7 -95.5t12.5 -83.5t19.5 -61q14 -26 34 -30.5t49 22.5q15 7 25 2t15.5 -15t4.5 -22t-9 -19q-23 -24 -49 -33.5t-51.5 -6.5t-47.5 19.5t-36 45.5t-20.5 60.5t-11.5 82.5q-20 -50 -43.5 -93.5t-53.5 -76 t-66 -51.5t-80 -19zM314 862q10 11 23.5 9t23 -10.5t12 -21t-7.5 -22.5l-21.5 -21.5l-28 -28l-28 -28t-20.5 -22.5q-12 -14 -24.5 -14t-21.5 8.5t-11.5 22.5t5.5 27z" />
<glyph unicode="&#xfb;" horiz-adv-x="718" d="M217 0q-48 0 -81 24t-54 63.5t-32 91.5t-15 108.5t-2.5 113.5t5 106.5t7.5 88t6 57.5q1 13 14 19.5t27.5 6.5t25.5 -6.5t10 -18.5q-3 -23 -7 -60.5t-6.5 -82t-4 -94t0.5 -98t8.5 -92.5t19 -77.5t31.5 -54t46 -21.5q46 -2 80.5 31.5t59.5 87t41 118.5t25 126t12.5 110 t2.5 71t11 31t26.5 9t27 -7.5t12.5 -18.5v-71t1 -89.5t3 -97.5t7 -95.5t12.5 -83.5t19.5 -61q14 -26 34 -30.5t49 22.5q15 7 25 2t15.5 -15t4.5 -22t-9 -19q-23 -24 -49 -33.5t-51.5 -6.5t-47.5 19.5t-36 45.5t-20.5 60.5t-11.5 82.5q-20 -50 -43.5 -93.5t-53.5 -76 t-66 -51.5t-80 -19zM251 870q4 6 12.5 10t19 3t21 -6t18.5 -17l81 -82q8 -13 5.5 -27t-11.5 -22.5t-21.5 -8.5t-24.5 14q-11 11 -30.5 31.5t-38.5 39.5q-18 -18 -36.5 -37t-28.5 -30q-12 -14 -24.5 -14t-21.5 8.5t-11.5 22.5t5.5 27z" />
<glyph unicode="&#xfc;" horiz-adv-x="718" d="M217 0q-48 0 -81 24t-54 63.5t-32 91.5t-15 108.5t-2.5 113.5t5 106.5t7.5 88t6 57.5q1 13 14 19.5t27.5 6.5t25.5 -6.5t10 -18.5q-3 -23 -7 -60.5t-6.5 -82t-4 -94t0.5 -98t8.5 -92.5t19 -77.5t31.5 -54t46 -21.5q46 -2 80.5 31.5t59.5 87t41 118.5t25 126t12.5 110 t2.5 71t11 31t26.5 9t27 -7.5t12.5 -18.5v-71t1 -89.5t3 -97.5t7 -95.5t12.5 -83.5t19.5 -61q14 -26 34 -30.5t49 22.5q15 7 25 2t15.5 -15t4.5 -22t-9 -19q-23 -24 -49 -33.5t-51.5 -6.5t-47.5 19.5t-36 45.5t-20.5 60.5t-11.5 82.5q-20 -50 -43.5 -93.5t-53.5 -76 t-66 -51.5t-80 -19zM133 755q-2 32 17 50t43 21.5t45 -7.5t22 -37q1 -22 -18.5 -36t-43 -18.5t-44 2t-21.5 25.5zM326 762q-2 32 17 50t43 21.5t45 -7.5t22 -37q1 -22 -18.5 -36t-43 -18.5t-44 2t-21.5 25.5z" />
<glyph unicode="&#xfd;" horiz-adv-x="552" d="M68 -110q-3 16 5.5 25.5t20 12t22.5 -2t14 -16.5q7 -32 21.5 -58t34 -44.5t41.5 -29t44 -10.5q55 -1 90 28.5t54.5 77t26 106.5t6 117t-6.5 108t-11 80q-9 -48 -27 -92.5t-44 -78.5t-60.5 -54t-76.5 -20q-48 0 -81.5 24t-56 63.5t-34.5 91t-17 107t-4 110.5t5 102 q1 15 13 21.5t25 5t23 -9.5t9 -20q-2 -28 -4 -70.5t-0.5 -89.5t8 -94t20.5 -84.5t37 -61t58 -23.5q43 0 72 29.5t47 76t26.5 104t11 113t0 103t-6.5 75.5q-3 20 7 31t23.5 12.5t26 -6t14.5 -23.5q6 -52 17.5 -119t22.5 -142t19.5 -153t8.5 -152t-11 -139t-38.5 -114.5 t-75 -78t-119.5 -29.5q-41 0 -75 16t-60 43t-42.5 61.5t-22.5 70.5zM297 859q10 11 23.5 9t23 -10.5t12 -21t-7.5 -22.5l-21.5 -21.5l-28 -28l-28 -28t-20.5 -22.5q-12 -14 -24.5 -14t-21.5 8.5t-11.5 22.5t5.5 27z" />
<glyph unicode="&#xfe;" horiz-adv-x="553" d="M45 23q-1 22 -1.5 68t-1 108t-1 135.5t-1 150t-0.5 151v139.5v115.5v78.5q0 10 10 16t22.5 7t23.5 -3.5t12 -15.5v-387q15 36 41.5 73.5t60.5 68.5t73.5 51t80.5 20q38 0 67 -13.5t49.5 -36.5t32 -54t13.5 -66q3 -42 -13 -88t-45 -91t-69 -86.5t-86.5 -74t-97.5 -53.5 t-101 -25l-3 -181q3 -10 -6.5 -21.5t-22.5 -16t-24.5 1t-12.5 29.5zM372 729q-45 0 -83 -24.5t-67.5 -63.5t-51 -87.5t-34 -98t-16 -94.5t3.5 -76q45 0 99.5 29.5t103 75.5t84 101.5t42.5 107.5q4 27 -0.5 51t-15 41.5t-27.5 27.5t-38 10z" />
<glyph unicode="&#xff;" horiz-adv-x="552" d="M68 -110q-3 16 5.5 25.5t20 12t22.5 -2t14 -16.5q7 -32 21.5 -58t34 -44.5t41.5 -29t44 -10.5q55 -1 90 28.5t54.5 77t26 106.5t6 117t-6.5 108t-11 80q-9 -48 -27 -92.5t-44 -78.5t-60.5 -54t-76.5 -20q-48 0 -81.5 24t-56 63.5t-34.5 91t-17 107t-4 110.5t5 102 q1 15 13 21.5t25 5t23 -9.5t9 -20q-2 -28 -4 -70.5t-0.5 -89.5t8 -94t20.5 -84.5t37 -61t58 -23.5q43 0 72 29.5t47 76t26.5 104t11 113t0 103t-6.5 75.5q-3 20 7 31t23.5 12.5t26 -6t14.5 -23.5q6 -52 17.5 -119t22.5 -142t19.5 -153t8.5 -152t-11 -139t-38.5 -114.5 t-75 -78t-119.5 -29.5q-41 0 -75 16t-60 43t-42.5 61.5t-22.5 70.5zM67 731q-2 32 17 50t43 21.5t45 -7.5t22 -37q1 -22 -18.5 -36t-43 -18.5t-44 2t-21.5 25.5zM260 738q-2 32 17 50t43 21.5t45 -7.5t22 -37q1 -22 -18.5 -36t-43 -18.5t-44 2t-21.5 25.5z" />
<glyph unicode="&#x131;" horiz-adv-x="199" d="M56 559q-2 25 9.5 38.5t26 16t27.5 -5t13 -23.5q1 -25 2 -68.5t2.5 -96t4 -110.5t5 -112.5t6 -101t7.5 -76.5q2 -17 -9 -25.5t-25.5 -8.5t-28 9t-14.5 28z" />
<glyph unicode="&#x152;" horiz-adv-x="935" d="M520 -3q-84 -6 -167 11.5t-150.5 58.5t-110 104.5t-45.5 149.5q-6 68 1.5 138t27.5 135.5t52 123t75.5 100.5t97.5 68.5t119 26.5l102 14t105 15.5t112.5 17.5t123.5 21q17 3 29 -5.5t14.5 -21.5t-6.5 -27t-34 -21q-22 -6 -54.5 -11t-70 -9t-78 -8t-78 -8.5t-69.5 -9.5 t-53 -12q-14 -5 -23.5 -41.5t-17 -87t-12.5 -104t-10 -92.5q31 2 72.5 7.5t86.5 14.5t90 20.5t83 26.5q23 9 41.5 2.5t26 -19.5t0.5 -28t-35 -22q-51 -14 -93.5 -24t-85 -19t-89 -19.5t-105.5 -24.5q0 -12 -2.5 -43.5t-2 -72.5t5.5 -85.5t19.5 -82t40 -62t67.5 -24.5 q30 0 74.5 9.5t91 23t87.5 27.5t63 23q25 6 42.5 3t24 -12t1.5 -22.5t-26 -28.5q-17 -13 -47 -24.5t-65.5 -21.5t-73.5 -18.5t-72 -14.5t-60.5 -10t-39.5 -5zM118 326q4 -49 25.5 -90t54.5 -73t75.5 -53.5t89.5 -31.5q-26 51 -37 121.5t-11.5 148t7 155.5t17 145t19.5 116.5 t15 68.5q-65 -15 -115.5 -66t-84 -122.5t-48.5 -155t-7 -163.5z" />
<glyph unicode="&#x153;" horiz-adv-x="956" d="M161 615q37 9 76.5 11t77.5 -4.5t72 -22.5t61 -42q31 39 67.5 69t75.5 44t78.5 11t77.5 -30q44 -31 50.5 -78t-13.5 -98t-61 -99t-93.5 -81.5t-111 -45.5t-112.5 10q7 -79 36.5 -124t73 -61t94.5 -6.5t100.5 38t92 72.5t67.5 98q7 16 20.5 19t24.5 -3t17 -18t-1 -26 q-65 -133 -157 -195t-197 -60q-60 1 -107 27t-79 71q-35 -30 -78.5 -47t-93.5 -17q-42 0 -75.5 16.5t-57.5 44t-37 64.5t-13 78q0 46 5 88t14.5 81.5t23.5 78.5t32 80q-3 13 10.5 31t39.5 26zM340 280q2 55 20.5 112t48.5 108q-35 42 -92 52t-116 -10q-17 -3 -33.5 -34 t-30 -76t-22 -97t-8.5 -96q0 -25 7.5 -50.5t22 -45.5t35.5 -33t47 -13q32 0 68 12t69 50q-9 27 -13.5 57.5t-2.5 63.5zM419 333q36 -22 78.5 -16t82.5 29.5t74 58.5t53.5 71t21.5 67.5t-22 48.5q-36 25 -80.5 12t-86 -52t-74.5 -97t-47 -122z" />
<glyph unicode="&#x178;" horiz-adv-x="726" d="M362 491q0 2 -14.5 24t-50.5 71t-96.5 127.5t-152.5 192.5q-14 19 -11 35t13.5 25t24 10t20.5 -10q9 -14 29 -40.5t47 -61t57.5 -73.5t61 -77.5t58 -74.5t47.5 -63q28 39 56 81.5t57 90.5t60.5 102t68.5 116q6 10 18.5 12.5t24 -1t18 -13t-0.5 -23.5q-29 -57 -51.5 -99.5 t-42.5 -76t-38 -62t-37.5 -58.5t-42 -64.5t-50.5 -80.5q-3 -12 -2.5 -45.5t2.5 -78t5 -96t5.5 -99.5t4.5 -88t2 -62q0 -20 -11 -29t-24.5 -8.5t-25.5 10.5t-13 28zM204 1048q-2 32 17 50t43 21.5t45 -7.5t22 -37q1 -22 -18.5 -36t-43 -18.5t-44 2t-21.5 25.5zM397 1055 q-2 32 17 50t43 21.5t45 -7.5t22 -37q1 -22 -18.5 -36t-43 -18.5t-44 2t-21.5 25.5z" />
<glyph unicode="&#x2c6;" horiz-adv-x="324" d="M139 841q4 6 12.5 10t19 3t21 -6t18.5 -17l81 -82q8 -13 5.5 -27t-11.5 -22.5t-21.5 -8.5t-24.5 14q-11 11 -30.5 31.5t-38.5 39.5q-18 -18 -36.5 -37t-28.5 -30q-12 -14 -24.5 -14t-21.5 8.5t-11.5 22.5t5.5 27z" />
<glyph unicode="&#x2da;" horiz-adv-x="359" d="M161 944q48 1 78 -17t44 -45.5t13 -59.5t-15.5 -60t-40.5 -46.5t-62 -18.5q-44 0 -74 18t-45.5 45t-16.5 59t11.5 59.5t39.5 46t68 19.5zM169 878q-35 -1 -48.5 -19t-10.5 -39.5t20 -38.5t44 -16q25 1 39.5 19t15.5 39t-13.5 38.5t-46.5 16.5z" />
<glyph unicode="&#x2dc;" horiz-adv-x="668" d="M198 825q-18 -5 -32 -17.5t-25 -29t-21 -35t-20 -33.5q-8 -11 -19 -13t-21 2.5t-15.5 13.5t-1.5 21q12 25 26 50.5t31 48t37.5 39t47.5 22.5q40 9 75.5 -7.5t67.5 -39.5t62 -42.5t58 -17.5q45 4 74.5 36t38.5 88q5 7 14 8.5t18 -1.5t16 -10t10 -17q-2 -35 -17.5 -65.5 t-38.5 -53.5t-51 -38t-54 -18q-28 -3 -52.5 5t-46 22t-41 30.5t-39 29.5t-39.5 20t-42 2z" />
<glyph unicode="&#x2000;" horiz-adv-x="636" />
<glyph unicode="&#x2001;" horiz-adv-x="1273" />
<glyph unicode="&#x2002;" horiz-adv-x="636" />
<glyph unicode="&#x2003;" horiz-adv-x="1273" />
<glyph unicode="&#x2004;" horiz-adv-x="424" />
<glyph unicode="&#x2005;" horiz-adv-x="318" />
<glyph unicode="&#x2006;" horiz-adv-x="212" />
<glyph unicode="&#x2007;" horiz-adv-x="212" />
<glyph unicode="&#x2008;" horiz-adv-x="159" />
<glyph unicode="&#x2009;" horiz-adv-x="254" />
<glyph unicode="&#x200a;" horiz-adv-x="70" />
<glyph unicode="&#x2010;" d="M366 461q15 -4 23 -16t7.5 -24.5t-9.5 -21.5t-27 -7q-8 1 -28 1h-46.5t-56 -0.5t-56 -0.5t-47 -0.5t-27.5 -0.5q-14 0 -21 11t-6 23.5t9 23t23 10.5l262 2v0z" />
<glyph unicode="&#x2011;" d="M366 461q15 -4 23 -16t7.5 -24.5t-9.5 -21.5t-27 -7q-8 1 -28 1h-46.5t-56 -0.5t-56 -0.5t-47 -0.5t-27.5 -0.5q-14 0 -21 11t-6 23.5t9 23t23 10.5l262 2v0z" />
<glyph unicode="&#x2012;" d="M366 461q15 -4 23 -16t7.5 -24.5t-9.5 -21.5t-27 -7q-8 1 -28 1h-46.5t-56 -0.5t-56 -0.5t-47 -0.5t-27.5 -0.5q-14 0 -21 11t-6 23.5t9 23t23 10.5l262 2v0z" />
<glyph unicode="&#x2013;" d="M366 461q15 -4 23 -16t7.5 -24.5t-9.5 -21.5t-27 -7q-8 1 -28 1h-46.5t-56 -0.5t-56 -0.5t-47 -0.5t-27.5 -0.5q-14 0 -21 11t-6 23.5t9 23t23 10.5l262 2v0z" />
<glyph unicode="&#x2014;" horiz-adv-x="590" d="M508 463q15 -4 23 -16t7.5 -24.5t-9.5 -21.5t-27 -7q-8 1 -38.5 1t-72.5 -0.5t-90.5 -1t-90.5 -1t-73 -1t-38 -0.5q-14 0 -21 11t-6 23.5t9 23t23 10.5l404 4v0z" />
<glyph unicode="&#x2018;" horiz-adv-x="197" d="M117 618q-4 -15 -15.5 -23t-23.5 -7.5t-21 9.5t-7 27q1 11 1.5 32.5t1 45t0.5 45v32.5q0 14 10.5 20.5t23 6t22.5 -8.5t10 -23l-2 -156v0z" />
<glyph unicode="&#x2019;" horiz-adv-x="197" d="M117 618q-4 -15 -15.5 -23t-23.5 -7.5t-21 9.5t-7 27q1 11 1.5 32.5t1 45t0.5 45v32.5q0 14 10.5 20.5t23 6t22.5 -8.5t10 -23l-2 -156v0z" />
<glyph unicode="&#x201a;" horiz-adv-x="197" d="M129 -13q-4 -15 -15.5 -23t-23.5 -7.5t-21 9.5t-7 27q1 11 1.5 32.5t1 45t0.5 45v32.5q0 14 10.5 20.5t23 6t22.5 -8.5t10 -23l-2 -156v0z" />
<glyph unicode="&#x201c;" horiz-adv-x="279" d="M117 618q-4 -15 -15.5 -23t-23.5 -7.5t-21 9.5t-7 27q1 11 1.5 32.5t1 45t0.5 45v32.5q0 14 10.5 20.5t23 6t22.5 -8.5t10 -23zM225 620q-4 -15 -15.5 -23t-23.5 -7.5t-21 9.5t-7 27q1 11 1.5 32.5t1 45t0.5 45v32.5q0 14 10.5 20.5t23 6t22.5 -8.5t10 -23z" />
<glyph unicode="&#x201d;" horiz-adv-x="279" d="M117 618q-4 -15 -15.5 -23t-23.5 -7.5t-21 9.5t-7 27q1 11 1.5 32.5t1 45t0.5 45v32.5q0 14 10.5 20.5t23 6t22.5 -8.5t10 -23zM225 620q-4 -15 -15.5 -23t-23.5 -7.5t-21 9.5t-7 27q1 11 1.5 32.5t1 45t0.5 45v32.5q0 14 10.5 20.5t23 6t22.5 -8.5t10 -23z" />
<glyph unicode="&#x201e;" horiz-adv-x="279" d="M125 -15q-4 -15 -15.5 -23t-23.5 -7.5t-21 9.5t-7 27q1 11 1.5 32.5t1 45t0.5 45v32.5q0 14 10.5 20.5t23 6t22.5 -8.5t10 -23zM233 -13q-4 -15 -15.5 -23t-23.5 -7.5t-21 9.5t-7 27q1 11 1.5 32.5t1 45t0.5 45v32.5q0 14 10.5 20.5t23 6t22.5 -8.5t10 -23z" />
<glyph unicode="&#x2026;" horiz-adv-x="707" d="M73 22q-2 32 17 50t43 21.5t45 -7.5t22 -37q1 -22 -18.5 -36t-43 -18.5t-44 2t-21.5 25.5zM302 22q-2 32 17 50t43 21.5t45 -7.5t22 -37q1 -22 -18.5 -36t-43 -18.5t-44 2t-21.5 25.5zM531 22q-2 32 17 50t43 21.5t45 -7.5t22 -37q1 -22 -18.5 -36t-43 -18.5t-44 2 t-21.5 25.5z" />
<glyph unicode="&#x202f;" horiz-adv-x="254" />
<glyph unicode="&#x2039;" horiz-adv-x="428" d="M330 462q12 7 24 2.5t19.5 -15t6.5 -22.5t-14 -19q-20 -11 -52 -29t-67 -39t-70 -41.5t-60 -35.5q16 -10 48 -25t68.5 -30t71 -27t55.5 -16q14 -3 18.5 -14t2 -22.5t-12 -19.5t-22.5 -5q-36 9 -74.5 22.5t-75 28.5t-69.5 30t-60 27q-12 5 -20 18.5t-9 29.5t6 31.5 t25 24.5l261 146v0z" />
<glyph unicode="&#x203a;" horiz-adv-x="440" d="M105 101q-12 -8 -24 -3t-19.5 15.5t-7 22.5t14.5 19q20 11 52 29t67 39t69.5 41.5t60.5 35.5q-16 10 -48 25t-68.5 30t-71 27t-55.5 16q-14 3 -18.5 14t-2 22.5t11.5 19.5t23 5q36 -9 74.5 -22.5t75 -28.5t69.5 -30t60 -27q12 -5 20 -18.5t9 -29.5t-6 -31.5t-25 -24.5 l-261 -146v0z" />
<glyph unicode="&#x205f;" horiz-adv-x="318" />
<glyph unicode="&#x20ac;" horiz-adv-x="741" d="M575 491q15 -4 23 -16t7.5 -24.5t-9.5 -21.5t-27 -7q-8 1 -48.5 -0.5t-97.5 -3.5t-121.5 -5t-119.5 -5v-23q1 -52 12.5 -105.5t38 -97t70.5 -72t109 -30.5q84 -2 138.5 48.5t87.5 143.5q6 18 20.5 22.5t28 -1t21.5 -20t1 -33.5q-18 -53 -47 -98.5t-67 -78.5t-86 -51 t-105 -16q-81 3 -137.5 37.5t-91.5 89t-50.5 122.5t-15.5 139v21q-21 -1 -38 -1.5t-21 -0.5q-14 0 -21 11t-6 23.5t9 23t23 10.5l58 2q2 14 4 29t4 29q-24 -1 -43.5 -1.5t-24.5 -0.5q-14 0 -21 11t-6 23.5t9 23t23 10.5l76 3q18 78 50 151t78.5 128t108 85.5t139.5 23.5 q15 -2 35 -12t38.5 -29t31.5 -47.5t13 -65.5q0 -16 -11 -25t-24 -11t-23.5 3.5t-9.5 18.5q2 25 -5 43t-18.5 30t-26.5 18t-30 5q-51 -3 -93.5 -30t-76.5 -70t-58.5 -98.5t-40.5 -114.5l367 14q15 -4 23 -16t7.5 -24.5t-9.5 -21.5t-27 -7q-8 1 -47 0t-94 -3.5t-118 -5 t-118 -5.5q-2 -14 -4.5 -29t-4.5 -29l389 15v0z" />
<glyph unicode="&#x2122;" horiz-adv-x="857" d="M404 483q2 29 3.5 61.5t1 65t-4 63.5t-11.5 57q-38 -10 -81 -22t-76 -20q0 -11 -1.5 -35t-2 -53.5t1 -60.5t7.5 -56.5t18 -42t32 -16.5q16 0 28 5t20.5 13.5t14.5 18.5t12 19q5 10 12 10.5t12.5 -4t8 -13t-1.5 -15.5q-6 -11 -15 -23.5t-21.5 -23t-29 -17.5t-38.5 -8 q-32 -1 -52 15t-30.5 42t-14.5 58.5t-4 65t2 62t3 49.5q-7 -1 -18 -3.5t-22.5 -5t-22 -4.5t-16.5 -2q-9 0 -13.5 5t-5.5 11.5t2.5 12.5t11.5 8q9 2 32 6t53 13q1 7 2.5 29.5t2.5 48t2.5 47.5t2.5 30q2 15 8.5 20.5t13 4.5t11.5 -6.5t4 -13.5q-1 -13 -2 -33t-2 -41.5t-2 -42 t-1 -33.5q34 7 73.5 17t83.5 22q12 4 20 -6.5t12.5 -26.5t7 -32.5t3.5 -25.5q6 15 16 34t23.5 36.5t30 29.5t35.5 12t30.5 -10t18.5 -25t9.5 -32t4.5 -31q7 9 14 20t16 20.5t20.5 16.5t26.5 7q27 0 42 -17t22 -44t7.5 -59.5t-2 -63t-6 -55.5t-4.5 -36q-1 -6 -8 -8.5 t-14.5 -2t-13.5 4.5t-4 11q3 11 6.5 32.5t5.5 47.5t2.5 53.5t-2.5 49.5t-11.5 35.5t-22.5 12.5q-17 -2 -30.5 -28t-23.5 -60.5t-16 -70.5t-8 -57q0 -8 -6.5 -10t-14 0t-13.5 7.5t-5 11.5q2 12 4.5 33.5t4.5 48t2.5 53.5t-2.5 49.5t-9.5 37.5t-17.5 16q-14 1 -28 -12 t-25.5 -31.5t-19.5 -37.5t-11 -31q-18 -75 -18 -152q0 -8 -6.5 -11.5t-14 -3.5t-13.5 3.5t-5 11.5z" />
<glyph unicode="&#x2212;" d="M366 461q15 -4 23 -16t7.5 -24.5t-9.5 -21.5t-27 -7q-8 1 -28 1h-46.5t-56 -0.5t-56 -0.5t-47 -0.5t-27.5 -0.5q-14 0 -21 11t-6 23.5t9 23t23 10.5l262 2v0z" />
</font>
</defs>
</svg>
